<?xml version="1.0" standalone="no"?>
 <!DOCTYPE svg PUBLIC "-//W3C//DTD SVG 1.1//EN" 
 "http://www.w3.org/Graphics/SVG/1.1/DTD/svg11.dtd"> 
<svg
  xmlns:svg="http://www.w3.org/2000/svg"
  xmlns="http://www.w3.org/2000/svg"
  xmlns:xlink="http://www.w3.org/1999/xlink"
  version="1.1"
  width="5.808980cm" height="10.507980cm" viewBox="0 0 58089800 105079800">
<title>SVG Picture created as VCF-F_Courtyard.svg date 2022/05/18 12:30:21 </title>
  <desc>Picture generated by PCBNEW </desc>
<g style="fill:#000000; fill-opacity:1.000000;stroke:#000000; stroke-opacity:1.000000;
stroke-linecap:round; stroke-linejoin:round;"
 transform="translate(0 0) scale(1 1)">
</g>
<g style="fill:#000000; fill-opacity:0.0; 
stroke:#000000; stroke-width:0.000000; stroke-opacity:1; 
stroke-linecap:round; stroke-linejoin:round;">
</g>
<g style="fill:#000000; fill-opacity:0.0; 
stroke:#000000; stroke-width:50000.000000; stroke-opacity:1; 
stroke-linecap:round; stroke-linejoin:round;">
<circle cx="53550000.000000" cy="2800000.000000" r="3050000.000000" /> 
<path d="M43210000 49896000
L43210000 52896000
" />
<path d="M43210000 52896000
L55470000 52896000
" />
<path d="M55470000 49896000
L43210000 49896000
" />
<path d="M55470000 52896000
L55470000 49896000
" />
<path d="M50650000 49844000
L50650000 46344000
" />
<path d="M42950000 49844000
L50650000 49844000
" />
<path d="M50650000 46344000
L42950000 46344000
" />
<path d="M42950000 46344000
L42950000 49844000
" />
<path d="M43210000 53325000
L43210000 56325000
" />
<path d="M43210000 56325000
L55470000 56325000
" />
<path d="M55470000 53325000
L43210000 53325000
" />
<path d="M55470000 56325000
L55470000 53325000
" />
<path d="M50650000 60004000
L50650000 56504000
" />
<path d="M42950000 60004000
L50650000 60004000
" />
<path d="M50650000 56504000
L42950000 56504000
" />
<path d="M42950000 56504000
L42950000 60004000
" />
<path d="M36120000 2860000
L36120000 9010000
" />
<path d="M49870000 9010000
L49870000 2860000
" />
<path d="M36120000 9010000
L49870000 9010000
" />
<path d="M49870000 2860000
L36120000 2860000
" />
<path d="M42670000 9215000
L42670000 22965000
" />
<path d="M56010000 22965000
L56010000 9215000
" />
<path d="M56010000 9215000
L42670000 9215000
" />
<path d="M42670000 22965000
L56010000 22965000
" />
<path d="M44340000 87630000
L54340000 87630000
" />
<path d="M54340000 87630000
L54340000 102030000
" />
<path d="M44340000 102030000
L54340000 102030000
" />
<path d="M44340000 87630000
L44340000 102030000
" />
<path d="M18940000 102030000
L28940000 102030000
" />
<path d="M18940000 87630000
L18940000 102030000
" />
<path d="M28940000 87630000
L28940000 102030000
" />
<path d="M18940000 87630000
L28940000 87630000
" />
<path d="M2030000 9215000
L2030000 22965000
" />
<path d="M15370000 22965000
L15370000 9215000
" />
<path d="M2030000 22965000
L15370000 22965000
" />
<path d="M15370000 9215000
L2030000 9215000
" />
<path d="M3700000 87630000
L3700000 102030000
" />
<path d="M3700000 87630000
L13700000 87630000
" />
<path d="M3700000 102030000
L13700000 102030000
" />
<path d="M13700000 87630000
L13700000 102030000
" />
<path d="M2030000 62335000
L15370000 62335000
" />
<path d="M15370000 48585000
L2030000 48585000
" />
<path d="M2030000 48585000
L2030000 62335000
" />
<path d="M15370000 62335000
L15370000 48585000
" />
<circle cx="6300000.000000" cy="2800000.000000" r="3050000.000000" /> 
<path d="M2030000 26995000
L2030000 40745000
" />
<path d="M15370000 40745000
L15370000 26995000
" />
<path d="M2030000 40745000
L15370000 40745000
" />
<path d="M15370000 26995000
L2030000 26995000
" />
<path d="M13700000 71120000
L13700000 85520000
" />
<path d="M3700000 71120000
L13700000 71120000
" />
<path d="M3700000 85520000
L13700000 85520000
" />
<path d="M3700000 71120000
L3700000 85520000
" />
<path d="M31640000 102030000
L41640000 102030000
" />
<path d="M41640000 87630000
L41640000 102030000
" />
<path d="M31640000 87630000
L41640000 87630000
" />
<path d="M31640000 87630000
L31640000 102030000
" />
<g >
</g>
<g >
</g>
<g >
</g>
<g >
</g>
<g >
</g>
<g >
</g>
<g >
</g>
<g >
</g>
<g >
</g>
<g >
</g>
<g >
</g>
<g >
</g>
<g >
</g>
<g >
</g>
<g >
</g>
<g >
</g>
<g >
</g>
<g >
</g>
<g >
</g>
<g >
</g>
<g >
</g>
<g >
</g>
<g >
</g>
<g >
</g>
<g >
</g>
<g >
</g>
<g >
</g>
<g >
</g>
<g >
</g>
<g >
</g>
<g >
</g>
<g >
</g>
<g >
</g>
<g >
</g>
<g >
</g>
<g >
</g>
<g >
</g>
<g >
</g>
<g >
</g>
<g >
</g>
<g >
</g>
<g >
</g>
<g >
</g>
<g >
</g>
<g >
</g>
<g >
</g>
<g >
</g>
<g >
</g>
<g >
</g>
<g >
</g>
<g >
</g>
<g >
</g>
<g >
</g>
<g >
</g>
<g >
</g>
<g >
</g>
<g >
</g>
<g >
</g>
<g >
</g>
<g >
</g>
<g >
</g>
</g>
<g style="fill:#000000; fill-opacity:0.0; 
stroke:#000000; stroke-width:50000.000000; stroke-opacity:1; 
stroke-linecap:round; stroke-linejoin:round;">
</g>
<g style="fill:#000000; fill-opacity:0.0; 
stroke:#000000; stroke-width:100000.000000; stroke-opacity:1; 
stroke-linecap:round; stroke-linejoin:round;">
<path d="M58050000 50000
L50000 50000
" />
<path d="M50000 50000
L50000 105050000
" />
<path d="M50000 105050000
L58050000 105050000
" />
<path d="M58050000 105050000
L58050000 50000
" />
<g >
</g>
<g >
</g>
<g >
</g>
<g >
</g>
<g >
</g>
<g >
</g>
<g >
</g>
<g >
</g>
<g >
</g>
<g >
</g>
<g >
</g>
<g >
</g>
<g >
</g>
<g >
</g>
<g >
</g>
<g >
</g>
<g >
</g>
<g >
</g>
<g >
</g>
<g >
</g>
<g >
</g>
<g >
</g>
<g >
</g>
<g >
</g>
<g >
</g>
<g >
</g>
<g >
</g>
<g >
</g>
<g >
</g>
<g >
</g>
<g >
</g>
<g >
</g>
<g >
</g>
<g >
</g>
<g >
</g>
<g >
</g>
<g >
</g>
<g >
</g>
<g >
</g>
<g >
</g>
<g >
</g>
<g >
</g>
<g >
</g>
<g >
</g>
<g >
</g>
<g >
</g>
<g >
</g>
<g >
</g>
<g >
</g>
<g >
</g>
<g >
</g>
<g >
</g>
<g >
</g>
<g >
</g>
<g >
</g>
<g >
</g>
<g >
</g>
<g >
</g>
<g >
</g>
<g >
</g>
<g >
</g>
</g> 
</svg>
