<?xml version="1.0" standalone="no"?>
 <!DOCTYPE svg PUBLIC "-//W3C//DTD SVG 1.1//EN" 
 "http://www.w3.org/Graphics/SVG/1.1/DTD/svg11.dtd"> 
<svg
  xmlns:svg="http://www.w3.org/2000/svg"
  xmlns="http://www.w3.org/2000/svg"
  xmlns:xlink="http://www.w3.org/1999/xlink"
  version="1.1"
  width="5.808980cm" height="10.507980cm" viewBox="0 0 58089800 105079800">
<title>SVG Picture created as VCF-F_Fab.svg date 2022/05/18 12:30:21 </title>
  <desc>Picture generated by PCBNEW </desc>
<g style="fill:#000000; fill-opacity:1.000000;stroke:#000000; stroke-opacity:1.000000;
stroke-linecap:round; stroke-linejoin:round;"
 transform="translate(0 0) scale(1 1)">
</g>
<g style="fill:#000000; fill-opacity:0.0; 
stroke:#000000; stroke-width:0.000000; stroke-opacity:1; 
stroke-linecap:round; stroke-linejoin:round;">
</g>
<g style="fill:#000000; fill-opacity:0.0; 
stroke:#000000; stroke-width:150000.000000; stroke-opacity:1; 
stroke-linecap:round; stroke-linejoin:round;">
<text x="53550000.000000" y="7100000.000000"
textLength="13879048.000000" font-size="1333333.000000" lengthAdjust="spacingAndGlyphs"
text-anchor="middle" opacity="0">MountingHole_Pad</text>
<g class="stroked-text"><desc>MountingHole_Pad</desc>
<path d="M46978571 7052380
L46978571 6052380
L47311904 6766666
L47645238 6052380
L47645238 7052380
" />
<path d="M48264285 7052380
L48169047 7004761
L48121428 6957142
L48073809 6861904
L48073809 6576190
L48121428 6480952
L48169047 6433333
L48264285 6385714
L48407142 6385714
L48502380 6433333
L48550000 6480952
L48597619 6576190
L48597619 6861904
L48550000 6957142
L48502380 7004761
L48407142 7052380
L48264285 7052380
" />
<path d="M49454761 6385714
L49454761 7052380
" />
<path d="M49026190 6385714
L49026190 6909523
L49073809 7004761
L49169047 7052380
L49311904 7052380
L49407142 7004761
L49454761 6957142
" />
<path d="M49930952 6385714
L49930952 7052380
" />
<path d="M49930952 6480952
L49978571 6433333
L50073809 6385714
L50216666 6385714
L50311904 6433333
L50359523 6528571
L50359523 7052380
" />
<path d="M50692857 6385714
L51073809 6385714
" />
<path d="M50835714 6052380
L50835714 6909523
L50883333 7004761
L50978571 7052380
L51073809 7052380
" />
<path d="M51407142 7052380
L51407142 6385714
" />
<path d="M51407142 6052380
L51359523 6100000
L51407142 6147619
L51454761 6100000
L51407142 6052380
L51407142 6147619
" />
<path d="M51883333 6385714
L51883333 7052380
" />
<path d="M51883333 6480952
L51930952 6433333
L52026190 6385714
L52169047 6385714
L52264285 6433333
L52311904 6528571
L52311904 7052380
" />
<path d="M53216666 6385714
L53216666 7195238
L53169047 7290476
L53121428 7338095
L53026190 7385714
L52883333 7385714
L52788095 7338095
" />
<path d="M53216666 7004761
L53121428 7052380
L52930952 7052380
L52835714 7004761
L52788095 6957142
L52740476 6861904
L52740476 6576190
L52788095 6480952
L52835714 6433333
L52930952 6385714
L53121428 6385714
L53216666 6433333
" />
<path d="M53692857 7052380
L53692857 6052380
" />
<path d="M53692857 6528571
L54264285 6528571
" />
<path d="M54264285 7052380
L54264285 6052380
" />
<path d="M54883333 7052380
L54788095 7004761
L54740476 6957142
L54692857 6861904
L54692857 6576190
L54740476 6480952
L54788095 6433333
L54883333 6385714
L55026190 6385714
L55121428 6433333
L55169047 6480952
L55216666 6576190
L55216666 6861904
L55169047 6957142
L55121428 7004761
L55026190 7052380
L54883333 7052380
" />
<path d="M55788095 7052380
L55692857 7004761
L55645238 6909523
L55645238 6052380
" />
<path d="M56550000 7004761
L56454761 7052380
L56264285 7052380
L56169047 7004761
L56121428 6909523
L56121428 6528571
L56169047 6433333
L56264285 6385714
L56454761 6385714
L56550000 6433333
L56597619 6528571
L56597619 6623809
L56121428 6719047
" />
<path d="M56788095 7147619
L57550000 7147619
" />
<path d="M57788095 7052380
L57788095 6052380
L58169047 6052380
L58264285 6100000
L58311904 6147619
L58359523 6242857
L58359523 6385714
L58311904 6480952
L58264285 6528571
L58169047 6576190
L57788095 6576190
" />
<path d="M59216666 7052380
L59216666 6528571
L59169047 6433333
L59073809 6385714
L58883333 6385714
L58788095 6433333
" />
<path d="M59216666 7004761
L59121428 7052380
L58883333 7052380
L58788095 7004761
L58740476 6909523
L58740476 6814285
L58788095 6719047
L58883333 6671428
L59121428 6671428
L59216666 6623809
" />
<path d="M60121428 7052380
L60121428 6052380
" />
<path d="M60121428 7004761
L60026190 7052380
L59835714 7052380
L59740476 7004761
L59692857 6957142
L59645238 6861904
L59645238 6576190
L59692857 6480952
L59740476 6433333
L59835714 6385714
L60026190 6385714
L60121428 6433333
" />
</g><text x="53550000.000000" y="3300000.000000"
textLength="2195000.000000" font-size="1333333.000000" lengthAdjust="spacingAndGlyphs"
text-anchor="middle" opacity="0">H3</text>
<g class="stroked-text"><desc>H3</desc>
<path d="M52788095 3252380
L52788095 2252380
" />
<path d="M52788095 2728571
L53359523 2728571
" />
<path d="M53359523 3252380
L53359523 2252380
" />
<path d="M53740476 2252380
L54359523 2252380
L54026190 2633333
L54169047 2633333
L54264285 2680952
L54311904 2728571
L54359523 2823809
L54359523 3061904
L54311904 3157142
L54264285 3204761
L54169047 3252380
L53883333 3252380
L53788095 3204761
L53740476 3157142
" />
</g><text x="49340000.000000" y="49526000.000000"
textLength="2909286.000000" font-size="1333333.000000" lengthAdjust="spacingAndGlyphs"
text-anchor="middle" opacity="0">20k</text>
<g class="stroked-text"><desc>20k</desc>
<path d="M48173333 48573619
L48220952 48526000
L48316190 48478380
L48554285 48478380
L48649523 48526000
L48697142 48573619
L48744761 48668857
L48744761 48764095
L48697142 48906952
L48125714 49478380
L48744761 49478380
" />
<path d="M49363809 48478380
L49459047 48478380
L49554285 48526000
L49601904 48573619
L49649523 48668857
L49697142 48859333
L49697142 49097428
L49649523 49287904
L49601904 49383142
L49554285 49430761
L49459047 49478380
L49363809 49478380
L49268571 49430761
L49220952 49383142
L49173333 49287904
L49125714 49097428
L49125714 48859333
L49173333 48668857
L49220952 48573619
L49268571 48526000
L49363809 48478380
" />
<path d="M50125714 49478380
L50125714 48478380
" />
<path d="M50220952 49097428
L50506666 49478380
" />
<path d="M50506666 48811714
L50125714 49192666
" />
</g><text x="49340000.000000" y="51896000.000000"
textLength="3099762.000000" font-size="1333333.000000" lengthAdjust="spacingAndGlyphs"
text-anchor="middle" opacity="0">R16</text>
<g class="stroked-text"><desc>R16</desc>
<path d="M48697142 51848380
L48363809 51372190
" />
<path d="M48125714 51848380
L48125714 50848380
L48506666 50848380
L48601904 50896000
L48649523 50943619
L48697142 51038857
L48697142 51181714
L48649523 51276952
L48601904 51324571
L48506666 51372190
L48125714 51372190
" />
<path d="M49649523 51848380
L49078095 51848380
" />
<path d="M49363809 51848380
L49363809 50848380
L49268571 50991238
L49173333 51086476
L49078095 51134095
" />
<path d="M50506666 50848380
L50316190 50848380
L50220952 50896000
L50173333 50943619
L50078095 51086476
L50030476 51276952
L50030476 51657904
L50078095 51753142
L50125714 51800761
L50220952 51848380
L50411428 51848380
L50506666 51800761
L50554285 51753142
L50601904 51657904
L50601904 51419809
L50554285 51324571
L50506666 51276952
L50411428 51229333
L50220952 51229333
L50125714 51276952
L50078095 51324571
L50030476 51419809
" />
</g><text x="46800000.000000" y="51344000.000000"
textLength="3861667.000000" font-size="1333333.000000" lengthAdjust="spacingAndGlyphs"
text-anchor="middle" opacity="0">10nF</text>
<g class="stroked-text"><desc>10nF</desc>
<path d="M45728571 51296380
L45157142 51296380
" />
<path d="M45442857 51296380
L45442857 50296380
L45347619 50439238
L45252380 50534476
L45157142 50582095
" />
<path d="M46347619 50296380
L46442857 50296380
L46538095 50344000
L46585714 50391619
L46633333 50486857
L46680952 50677333
L46680952 50915428
L46633333 51105904
L46585714 51201142
L46538095 51248761
L46442857 51296380
L46347619 51296380
L46252380 51248761
L46204761 51201142
L46157142 51105904
L46109523 50915428
L46109523 50677333
L46157142 50486857
L46204761 50391619
L46252380 50344000
L46347619 50296380
" />
<path d="M47109523 50629714
L47109523 51296380
" />
<path d="M47109523 50724952
L47157142 50677333
L47252380 50629714
L47395238 50629714
L47490476 50677333
L47538095 50772571
L47538095 51296380
" />
<path d="M48347619 50772571
L48014285 50772571
" />
<path d="M48014285 51296380
L48014285 50296380
L48490476 50296380
" />
</g><text x="46800000.000000" y="48594000.000000"
textLength="3099762.000000" font-size="1333333.000000" lengthAdjust="spacingAndGlyphs"
text-anchor="middle" opacity="0">C15</text>
<g class="stroked-text"><desc>C15</desc>
<path d="M46157142 48451142
L46109523 48498761
L45966666 48546380
L45871428 48546380
L45728571 48498761
L45633333 48403523
L45585714 48308285
L45538095 48117809
L45538095 47974952
L45585714 47784476
L45633333 47689238
L45728571 47594000
L45871428 47546380
L45966666 47546380
L46109523 47594000
L46157142 47641619
" />
<path d="M47109523 48546380
L46538095 48546380
" />
<path d="M46823809 48546380
L46823809 47546380
L46728571 47689238
L46633333 47784476
L46538095 47832095
" />
<path d="M48014285 47546380
L47538095 47546380
L47490476 48022571
L47538095 47974952
L47633333 47927333
L47871428 47927333
L47966666 47974952
L48014285 48022571
L48061904 48117809
L48061904 48355904
L48014285 48451142
L47966666 48498761
L47871428 48546380
L47633333 48546380
L47538095 48498761
L47490476 48451142
" />
</g><text x="49340000.000000" y="52955000.000000"
textLength="2909286.000000" font-size="1333333.000000" lengthAdjust="spacingAndGlyphs"
text-anchor="middle" opacity="0">20k</text>
<g class="stroked-text"><desc>20k</desc>
<path d="M48173333 52002619
L48220952 51955000
L48316190 51907380
L48554285 51907380
L48649523 51955000
L48697142 52002619
L48744761 52097857
L48744761 52193095
L48697142 52335952
L48125714 52907380
L48744761 52907380
" />
<path d="M49363809 51907380
L49459047 51907380
L49554285 51955000
L49601904 52002619
L49649523 52097857
L49697142 52288333
L49697142 52526428
L49649523 52716904
L49601904 52812142
L49554285 52859761
L49459047 52907380
L49363809 52907380
L49268571 52859761
L49220952 52812142
L49173333 52716904
L49125714 52526428
L49125714 52288333
L49173333 52097857
L49220952 52002619
L49268571 51955000
L49363809 51907380
" />
<path d="M50125714 52907380
L50125714 51907380
" />
<path d="M50220952 52526428
L50506666 52907380
" />
<path d="M50506666 52240714
L50125714 52621666
" />
</g><text x="49340000.000000" y="55325000.000000"
textLength="3099762.000000" font-size="1333333.000000" lengthAdjust="spacingAndGlyphs"
text-anchor="middle" opacity="0">R26</text>
<g class="stroked-text"><desc>R26</desc>
<path d="M48697142 55277380
L48363809 54801190
" />
<path d="M48125714 55277380
L48125714 54277380
L48506666 54277380
L48601904 54325000
L48649523 54372619
L48697142 54467857
L48697142 54610714
L48649523 54705952
L48601904 54753571
L48506666 54801190
L48125714 54801190
" />
<path d="M49078095 54372619
L49125714 54325000
L49220952 54277380
L49459047 54277380
L49554285 54325000
L49601904 54372619
L49649523 54467857
L49649523 54563095
L49601904 54705952
L49030476 55277380
L49649523 55277380
" />
<path d="M50506666 54277380
L50316190 54277380
L50220952 54325000
L50173333 54372619
L50078095 54515476
L50030476 54705952
L50030476 55086904
L50078095 55182142
L50125714 55229761
L50220952 55277380
L50411428 55277380
L50506666 55229761
L50554285 55182142
L50601904 55086904
L50601904 54848809
L50554285 54753571
L50506666 54705952
L50411428 54658333
L50220952 54658333
L50125714 54705952
L50078095 54753571
L50030476 54848809
" />
</g><text x="46800000.000000" y="61504000.000000"
textLength="3861667.000000" font-size="1333333.000000" lengthAdjust="spacingAndGlyphs"
text-anchor="middle" opacity="0">10nF</text>
<g class="stroked-text"><desc>10nF</desc>
<path d="M45728571 61456380
L45157142 61456380
" />
<path d="M45442857 61456380
L45442857 60456380
L45347619 60599238
L45252380 60694476
L45157142 60742095
" />
<path d="M46347619 60456380
L46442857 60456380
L46538095 60504000
L46585714 60551619
L46633333 60646857
L46680952 60837333
L46680952 61075428
L46633333 61265904
L46585714 61361142
L46538095 61408761
L46442857 61456380
L46347619 61456380
L46252380 61408761
L46204761 61361142
L46157142 61265904
L46109523 61075428
L46109523 60837333
L46157142 60646857
L46204761 60551619
L46252380 60504000
L46347619 60456380
" />
<path d="M47109523 60789714
L47109523 61456380
" />
<path d="M47109523 60884952
L47157142 60837333
L47252380 60789714
L47395238 60789714
L47490476 60837333
L47538095 60932571
L47538095 61456380
" />
<path d="M48347619 60932571
L48014285 60932571
" />
<path d="M48014285 61456380
L48014285 60456380
L48490476 60456380
" />
</g><text x="46800000.000000" y="58754000.000000"
textLength="3099762.000000" font-size="1333333.000000" lengthAdjust="spacingAndGlyphs"
text-anchor="middle" opacity="0">C16</text>
<g class="stroked-text"><desc>C16</desc>
<path d="M46157142 58611142
L46109523 58658761
L45966666 58706380
L45871428 58706380
L45728571 58658761
L45633333 58563523
L45585714 58468285
L45538095 58277809
L45538095 58134952
L45585714 57944476
L45633333 57849238
L45728571 57754000
L45871428 57706380
L45966666 57706380
L46109523 57754000
L46157142 57801619
" />
<path d="M47109523 58706380
L46538095 58706380
" />
<path d="M46823809 58706380
L46823809 57706380
L46728571 57849238
L46633333 57944476
L46538095 57992095
" />
<path d="M47966666 57706380
L47776190 57706380
L47680952 57754000
L47633333 57801619
L47538095 57944476
L47490476 58134952
L47490476 58515904
L47538095 58611142
L47585714 58658761
L47680952 58706380
L47871428 58706380
L47966666 58658761
L48014285 58611142
L48061904 58515904
L48061904 58277809
L48014285 58182571
L47966666 58134952
L47871428 58087333
L47680952 58087333
L47585714 58134952
L47538095 58182571
L47490476 58277809
" />
</g><text x="41725000.000000" y="3133000.000000"
textLength="12671190.000000" font-size="1333333.000000" lengthAdjust="spacingAndGlyphs"
text-anchor="middle" opacity="0">PIN_HEADER_2x5</text>
<g class="stroked-text"><desc>PIN_HEADER_2x5</desc>
<path d="M35725000 3085380
L35725000 2085380
L36105952 2085380
L36201190 2133000
L36248809 2180619
L36296428 2275857
L36296428 2418714
L36248809 2513952
L36201190 2561571
L36105952 2609190
L35725000 2609190
" />
<path d="M36725000 3085380
L36725000 2085380
" />
<path d="M37201190 3085380
L37201190 2085380
L37772619 3085380
L37772619 2085380
" />
<path d="M38010714 3180619
L38772619 3180619
" />
<path d="M39010714 3085380
L39010714 2085380
" />
<path d="M39010714 2561571
L39582142 2561571
" />
<path d="M39582142 3085380
L39582142 2085380
" />
<path d="M40058333 2561571
L40391666 2561571
" />
<path d="M40534523 3085380
L40058333 3085380
L40058333 2085380
L40534523 2085380
" />
<path d="M40915476 2799666
L41391666 2799666
" />
<path d="M40820238 3085380
L41153571 2085380
L41486904 3085380
" />
<path d="M41820238 3085380
L41820238 2085380
L42058333 2085380
L42201190 2133000
L42296428 2228238
L42344047 2323476
L42391666 2513952
L42391666 2656809
L42344047 2847285
L42296428 2942523
L42201190 3037761
L42058333 3085380
L41820238 3085380
" />
<path d="M42820238 2561571
L43153571 2561571
" />
<path d="M43296428 3085380
L42820238 3085380
L42820238 2085380
L43296428 2085380
" />
<path d="M44296428 3085380
L43963095 2609190
" />
<path d="M43725000 3085380
L43725000 2085380
L44105952 2085380
L44201190 2133000
L44248809 2180619
L44296428 2275857
L44296428 2418714
L44248809 2513952
L44201190 2561571
L44105952 2609190
L43725000 2609190
" />
<path d="M44486904 3180619
L45248809 3180619
" />
<path d="M45439285 2180619
L45486904 2133000
L45582142 2085380
L45820238 2085380
L45915476 2133000
L45963095 2180619
L46010714 2275857
L46010714 2371095
L45963095 2513952
L45391666 3085380
L46010714 3085380
" />
<path d="M46344047 3085380
L46867857 2418714
" />
<path d="M46344047 2418714
L46867857 3085380
" />
<path d="M47725000 2085380
L47248809 2085380
L47201190 2561571
L47248809 2513952
L47344047 2466333
L47582142 2466333
L47677380 2513952
L47725000 2561571
L47772619 2656809
L47772619 2894904
L47725000 2990142
L47677380 3037761
L47582142 3085380
L47344047 3085380
L47248809 3037761
L47201190 2990142
" />
</g><text x="49641210.000000" y="3069721.000000"
textLength="2195000.000000" font-size="1333333.000000" lengthAdjust="spacingAndGlyphs"
text-anchor="middle" opacity="0">H1</text>
<g class="stroked-text"><desc>H1</desc>
<path d="M48879305 3022101
L48879305 2022101
" />
<path d="M48879305 2498292
L49450733 2498292
" />
<path d="M49450733 3022101
L49450733 2022101
" />
<path d="M50450733 3022101
L49879305 3022101
" />
<path d="M50165019 3022101
L50165019 2022101
L50069781 2164959
L49974543 2260197
L49879305 2307816
" />
</g><g transform="rotate(-90.000000 56950000.000000 21815000.000000)">
<text x="56950000.000000" y="22315000.000000"
textLength="3861667.000000" font-size="1333333.000000" lengthAdjust="spacingAndGlyphs"
text-anchor="middle" opacity="0">100k</text>
</g>
<g class="stroked-text"><desc>100k</desc>
<path d="M57402380 22886428
L57402380 23457857
" />
<path d="M57402380 23172142
L56402380 23172142
L56545238 23267380
L56640476 23362619
L56688095 23457857
" />
<path d="M56402380 22267380
L56402380 22172142
L56450000 22076904
L56497619 22029285
L56592857 21981666
L56783333 21934047
L57021428 21934047
L57211904 21981666
L57307142 22029285
L57354761 22076904
L57402380 22172142
L57402380 22267380
L57354761 22362619
L57307142 22410238
L57211904 22457857
L57021428 22505476
L56783333 22505476
L56592857 22457857
L56497619 22410238
L56450000 22362619
L56402380 22267380
" />
<path d="M56402380 21315000
L56402380 21219761
L56450000 21124523
L56497619 21076904
L56592857 21029285
L56783333 20981666
L57021428 20981666
L57211904 21029285
L57307142 21076904
L57354761 21124523
L57402380 21219761
L57402380 21315000
L57354761 21410238
L57307142 21457857
L57211904 21505476
L57021428 21553095
L56783333 21553095
L56592857 21505476
L56497619 21457857
L56450000 21410238
L56402380 21315000
" />
<path d="M57402380 20553095
L56402380 20553095
" />
<path d="M57021428 20457857
L57402380 20172142
" />
<path d="M56735714 20172142
L57116666 20553095
" />
</g><g transform="rotate(-90.000000 49380000.000000 14195000.000000)">
<text x="49380000.000000" y="14695000.000000"
textLength="3004524.000000" font-size="1333333.000000" lengthAdjust="spacingAndGlyphs"
text-anchor="middle" opacity="0">RV4</text>
</g>
<g class="stroked-text"><desc>RV4</desc>
<path d="M49832380 14790238
L49356190 15123571
" />
<path d="M49832380 15361666
L48832380 15361666
L48832380 14980714
L48880000 14885476
L48927619 14837857
L49022857 14790238
L49165714 14790238
L49260952 14837857
L49308571 14885476
L49356190 14980714
L49356190 15361666
" />
<path d="M48832380 14504523
L49832380 14171190
L48832380 13837857
" />
<path d="M49165714 13075952
L49832380 13075952
" />
<path d="M48784761 13314047
L49499047 13552142
L49499047 12933095
" />
</g><text x="49340000.000000" y="96110000.000000"
textLength="5575952.000000" font-size="1333333.000000" lengthAdjust="spacingAndGlyphs"
text-anchor="middle" opacity="0">TP_OUT</text>
<g class="stroked-text"><desc>TP_OUT</desc>
<path d="M46744761 95062380
L47316190 95062380
" />
<path d="M47030476 96062380
L47030476 95062380
" />
<path d="M47649523 96062380
L47649523 95062380
L48030476 95062380
L48125714 95110000
L48173333 95157619
L48220952 95252857
L48220952 95395714
L48173333 95490952
L48125714 95538571
L48030476 95586190
L47649523 95586190
" />
<path d="M48411428 96157619
L49173333 96157619
" />
<path d="M49601904 95062380
L49792380 95062380
L49887619 95110000
L49982857 95205238
L50030476 95395714
L50030476 95729047
L49982857 95919523
L49887619 96014761
L49792380 96062380
L49601904 96062380
L49506666 96014761
L49411428 95919523
L49363809 95729047
L49363809 95395714
L49411428 95205238
L49506666 95110000
L49601904 95062380
" />
<path d="M50459047 95062380
L50459047 95871904
L50506666 95967142
L50554285 96014761
L50649523 96062380
L50840000 96062380
L50935238 96014761
L50982857 95967142
L51030476 95871904
L51030476 95062380
" />
<path d="M51363809 95062380
L51935238 95062380
" />
<path d="M51649523 96062380
L51649523 95062380
" />
</g><text x="49340000.000000" y="93110000.000000"
textLength="1909286.000000" font-size="1333333.000000" lengthAdjust="spacingAndGlyphs"
text-anchor="middle" opacity="0">J2</text>
<g class="stroked-text"><desc>J2</desc>
<path d="M49006666 92062380
L49006666 92776666
L48959047 92919523
L48863809 93014761
L48720952 93062380
L48625714 93062380
" />
<path d="M49435238 92157619
L49482857 92110000
L49578095 92062380
L49816190 92062380
L49911428 92110000
L49959047 92157619
L50006666 92252857
L50006666 92348095
L49959047 92490952
L49387619 93062380
L50006666 93062380
" />
</g><text x="23940000.000000" y="96110000.000000"
textLength="5861667.000000" font-size="1333333.000000" lengthAdjust="spacingAndGlyphs"
text-anchor="middle" opacity="0">HP_OUT</text>
<g class="stroked-text"><desc>HP_OUT</desc>
<path d="M21344761 96062380
L21344761 95062380
" />
<path d="M21344761 95538571
L21916190 95538571
" />
<path d="M21916190 96062380
L21916190 95062380
" />
<path d="M22392380 96062380
L22392380 95062380
L22773333 95062380
L22868571 95110000
L22916190 95157619
L22963809 95252857
L22963809 95395714
L22916190 95490952
L22868571 95538571
L22773333 95586190
L22392380 95586190
" />
<path d="M23154285 96157619
L23916190 96157619
" />
<path d="M24344761 95062380
L24535238 95062380
L24630476 95110000
L24725714 95205238
L24773333 95395714
L24773333 95729047
L24725714 95919523
L24630476 96014761
L24535238 96062380
L24344761 96062380
L24249523 96014761
L24154285 95919523
L24106666 95729047
L24106666 95395714
L24154285 95205238
L24249523 95110000
L24344761 95062380
" />
<path d="M25201904 95062380
L25201904 95871904
L25249523 95967142
L25297142 96014761
L25392380 96062380
L25582857 96062380
L25678095 96014761
L25725714 95967142
L25773333 95871904
L25773333 95062380
" />
<path d="M26106666 95062380
L26678095 95062380
" />
<path d="M26392380 96062380
L26392380 95062380
" />
</g><text x="23940000.000000" y="93110000.000000"
textLength="1909286.000000" font-size="1333333.000000" lengthAdjust="spacingAndGlyphs"
text-anchor="middle" opacity="0">J4</text>
<g class="stroked-text"><desc>J4</desc>
<path d="M23606666 92062380
L23606666 92776666
L23559047 92919523
L23463809 93014761
L23320952 93062380
L23225714 93062380
" />
<path d="M24511428 92395714
L24511428 93062380
" />
<path d="M24273333 92014761
L24035238 92729047
L24654285 92729047
" />
</g><g transform="rotate(-90.000000 16310000.000000 18259000.000000)">
<text x="16310000.000000" y="18759000.000000"
textLength="3861667.000000" font-size="1333333.000000" lengthAdjust="spacingAndGlyphs"
text-anchor="middle" opacity="0">100k</text>
</g>
<g class="stroked-text"><desc>100k</desc>
<path d="M16762380 19330428
L16762380 19901857
" />
<path d="M16762380 19616142
L15762380 19616142
L15905238 19711380
L16000476 19806619
L16048095 19901857
" />
<path d="M15762380 18711380
L15762380 18616142
L15810000 18520904
L15857619 18473285
L15952857 18425666
L16143333 18378047
L16381428 18378047
L16571904 18425666
L16667142 18473285
L16714761 18520904
L16762380 18616142
L16762380 18711380
L16714761 18806619
L16667142 18854238
L16571904 18901857
L16381428 18949476
L16143333 18949476
L15952857 18901857
L15857619 18854238
L15810000 18806619
L15762380 18711380
" />
<path d="M15762380 17759000
L15762380 17663761
L15810000 17568523
L15857619 17520904
L15952857 17473285
L16143333 17425666
L16381428 17425666
L16571904 17473285
L16667142 17520904
L16714761 17568523
L16762380 17663761
L16762380 17759000
L16714761 17854238
L16667142 17901857
L16571904 17949476
L16381428 17997095
L16143333 17997095
L15952857 17949476
L15857619 17901857
L15810000 17854238
L15762380 17759000
" />
<path d="M16762380 16997095
L15762380 16997095
" />
<path d="M16381428 16901857
L16762380 16616142
" />
<path d="M16095714 16616142
L16476666 16997095
" />
</g><g transform="rotate(-90.000000 8700000.000000 14315000.000000)">
<text x="8700000.000000" y="14815000.000000"
textLength="3004524.000000" font-size="1333333.000000" lengthAdjust="spacingAndGlyphs"
text-anchor="middle" opacity="0">RV2</text>
</g>
<g class="stroked-text"><desc>RV2</desc>
<path d="M9152380 14910238
L8676190 15243571
" />
<path d="M9152380 15481666
L8152380 15481666
L8152380 15100714
L8200000 15005476
L8247619 14957857
L8342857 14910238
L8485714 14910238
L8580952 14957857
L8628571 15005476
L8676190 15100714
L8676190 15481666
" />
<path d="M8152380 14624523
L9152380 14291190
L8152380 13957857
" />
<path d="M8247619 13672142
L8200000 13624523
L8152380 13529285
L8152380 13291190
L8200000 13195952
L8247619 13148333
L8342857 13100714
L8438095 13100714
L8580952 13148333
L9152380 13719761
L9152380 13100714
" />
</g><text x="8700000.000000" y="96110000.000000"
textLength="6909286.000000" font-size="1333333.000000" lengthAdjust="spacingAndGlyphs"
text-anchor="middle" opacity="0">AUDIO_IN</text>
<g class="stroked-text"><desc>AUDIO_IN</desc>
<path d="M5533333 95776666
L6009523 95776666
" />
<path d="M5438095 96062380
L5771428 95062380
L6104761 96062380
" />
<path d="M6438095 95062380
L6438095 95871904
L6485714 95967142
L6533333 96014761
L6628571 96062380
L6819047 96062380
L6914285 96014761
L6961904 95967142
L7009523 95871904
L7009523 95062380
" />
<path d="M7485714 96062380
L7485714 95062380
L7723809 95062380
L7866666 95110000
L7961904 95205238
L8009523 95300476
L8057142 95490952
L8057142 95633809
L8009523 95824285
L7961904 95919523
L7866666 96014761
L7723809 96062380
L7485714 96062380
" />
<path d="M8485714 96062380
L8485714 95062380
" />
<path d="M9152380 95062380
L9342857 95062380
L9438095 95110000
L9533333 95205238
L9580952 95395714
L9580952 95729047
L9533333 95919523
L9438095 96014761
L9342857 96062380
L9152380 96062380
L9057142 96014761
L8961904 95919523
L8914285 95729047
L8914285 95395714
L8961904 95205238
L9057142 95110000
L9152380 95062380
" />
<path d="M9771428 96157619
L10533333 96157619
" />
<path d="M10771428 96062380
L10771428 95062380
" />
<path d="M11247619 96062380
L11247619 95062380
L11819047 96062380
L11819047 95062380
" />
</g><text x="8700000.000000" y="93110000.000000"
textLength="1909286.000000" font-size="1333333.000000" lengthAdjust="spacingAndGlyphs"
text-anchor="middle" opacity="0">J5</text>
<g class="stroked-text"><desc>J5</desc>
<path d="M8366666 92062380
L8366666 92776666
L8319047 92919523
L8223809 93014761
L8080952 93062380
L7985714 93062380
" />
<path d="M9319047 92062380
L8842857 92062380
L8795238 92538571
L8842857 92490952
L8938095 92443333
L9176190 92443333
L9271428 92490952
L9319047 92538571
L9366666 92633809
L9366666 92871904
L9319047 92967142
L9271428 93014761
L9176190 93062380
L8938095 93062380
L8842857 93014761
L8795238 92967142
" />
</g><text x="19739000.000000" y="50235000.000000"
textLength="3861667.000000" font-size="1333333.000000" lengthAdjust="spacingAndGlyphs"
text-anchor="middle" opacity="0">100k</text>
<g class="stroked-text"><desc>100k</desc>
<path d="M18667571 50187380
L18096142 50187380
" />
<path d="M18381857 50187380
L18381857 49187380
L18286619 49330238
L18191380 49425476
L18096142 49473095
" />
<path d="M19286619 49187380
L19381857 49187380
L19477095 49235000
L19524714 49282619
L19572333 49377857
L19619952 49568333
L19619952 49806428
L19572333 49996904
L19524714 50092142
L19477095 50139761
L19381857 50187380
L19286619 50187380
L19191380 50139761
L19143761 50092142
L19096142 49996904
L19048523 49806428
L19048523 49568333
L19096142 49377857
L19143761 49282619
L19191380 49235000
L19286619 49187380
" />
<path d="M20239000 49187380
L20334238 49187380
L20429476 49235000
L20477095 49282619
L20524714 49377857
L20572333 49568333
L20572333 49806428
L20524714 49996904
L20477095 50092142
L20429476 50139761
L20334238 50187380
L20239000 50187380
L20143761 50139761
L20096142 50092142
L20048523 49996904
L20000904 49806428
L20000904 49568333
L20048523 49377857
L20096142 49282619
L20143761 49235000
L20239000 49187380
" />
<path d="M21000904 50187380
L21000904 49187380
" />
<path d="M21096142 49806428
L21381857 50187380
" />
<path d="M21381857 49520714
L21000904 49901666
" />
</g><g transform="rotate(-90.000000 8700000.000000 53685000.000000)">
<text x="8700000.000000" y="54185000.000000"
textLength="3004524.000000" font-size="1333333.000000" lengthAdjust="spacingAndGlyphs"
text-anchor="middle" opacity="0">RV1</text>
</g>
<g class="stroked-text"><desc>RV1</desc>
<path d="M9152380 54280238
L8676190 54613571
" />
<path d="M9152380 54851666
L8152380 54851666
L8152380 54470714
L8200000 54375476
L8247619 54327857
L8342857 54280238
L8485714 54280238
L8580952 54327857
L8628571 54375476
L8676190 54470714
L8676190 54851666
" />
<path d="M8152380 53994523
L9152380 53661190
L8152380 53327857
" />
<path d="M9152380 52470714
L9152380 53042142
" />
<path d="M9152380 52756428
L8152380 52756428
L8295238 52851666
L8390476 52946904
L8438095 53042142
" />
</g><text x="7550000.000000" y="7300000.000000"
textLength="13814048.000000" font-size="1333333.000000" lengthAdjust="spacingAndGlyphs"
text-anchor="middle" opacity="0">MountingHole_Pad</text>
<g class="stroked-text"><desc>MountingHole_Pad</desc>
<path d="M978571 7252380
L978571 6252380
L1311904 6966666
L1645238 6252380
L1645238 7252380
" />
<path d="M2264285 7252380
L2169047 7204761
L2121428 7157142
L2073809 7061904
L2073809 6776190
L2121428 6680952
L2169047 6633333
L2264285 6585714
L2407142 6585714
L2502380 6633333
L2549999 6680952
L2597619 6776190
L2597619 7061904
L2549999 7157142
L2502380 7204761
L2407142 7252380
L2264285 7252380
" />
<path d="M3454761 6585714
L3454761 7252380
" />
<path d="M3026190 6585714
L3026190 7109523
L3073809 7204761
L3169047 7252380
L3311904 7252380
L3407142 7204761
L3454761 7157142
" />
<path d="M3930952 6585714
L3930952 7252380
" />
<path d="M3930952 6680952
L3978571 6633333
L4073809 6585714
L4216666 6585714
L4311904 6633333
L4359523 6728571
L4359523 7252380
" />
<path d="M4692857 6585714
L5073809 6585714
" />
<path d="M4835714 6252380
L4835714 7109523
L4883333 7204761
L4978571 7252380
L5073809 7252380
" />
<path d="M5407142 7252380
L5407142 6585714
" />
<path d="M5407142 6252380
L5359523 6300000
L5407142 6347619
L5454761 6300000
L5407142 6252380
L5407142 6347619
" />
<path d="M5883333 6585714
L5883333 7252380
" />
<path d="M5883333 6680952
L5930952 6633333
L6026190 6585714
L6169047 6585714
L6264285 6633333
L6311904 6728571
L6311904 7252380
" />
<path d="M7216666 6585714
L7216666 7395238
L7169047 7490476
L7121428 7538095
L7026190 7585714
L6883333 7585714
L6788095 7538095
" />
<path d="M7216666 7204761
L7121428 7252380
L6930952 7252380
L6835714 7204761
L6788095 7157142
L6740476 7061904
L6740476 6776190
L6788095 6680952
L6835714 6633333
L6930952 6585714
L7121428 6585714
L7216666 6633333
" />
<path d="M7692857 7252380
L7692857 6252380
" />
<path d="M7692857 6728571
L8264285 6728571
" />
<path d="M8264285 7252380
L8264285 6252380
" />
<path d="M8883333 7252380
L8788095 7204761
L8740476 7157142
L8692857 7061904
L8692857 6776190
L8740476 6680952
L8788095 6633333
L8883333 6585714
L9026190 6585714
L9121428 6633333
L9169047 6680952
L9216666 6776190
L9216666 7061904
L9169047 7157142
L9121428 7204761
L9026190 7252380
L8883333 7252380
" />
<path d="M9788095 7252380
L9692857 7204761
L9645238 7109523
L9645238 6252380
" />
<path d="M10549999 7204761
L10454761 7252380
L10264285 7252380
L10169047 7204761
L10121428 7109523
L10121428 6728571
L10169047 6633333
L10264285 6585714
L10454761 6585714
L10549999 6633333
L10597619 6728571
L10597619 6823809
L10121428 6919047
" />
<path d="M10788095 7347619
L11549999 7347619
" />
<path d="M11788095 7252380
L11788095 6252380
L12169047 6252380
L12264285 6300000
L12311904 6347619
L12359523 6442857
L12359523 6585714
L12311904 6680952
L12264285 6728571
L12169047 6776190
L11788095 6776190
" />
<path d="M13216666 7252380
L13216666 6728571
L13169047 6633333
L13073809 6585714
L12883333 6585714
L12788095 6633333
" />
<path d="M13216666 7204761
L13121428 7252380
L12883333 7252380
L12788095 7204761
L12740476 7109523
L12740476 7014285
L12788095 6919047
L12883333 6871428
L13121428 6871428
L13216666 6823809
" />
<path d="M14121428 7252380
L14121428 6252380
" />
<path d="M14121428 7204761
L14026190 7252380
L13835714 7252380
L13740476 7204761
L13692857 7157142
L13645238 7061904
L13645238 6776190
L13692857 6680952
L13740476 6633333
L13835714 6585714
L14026190 6585714
L14121428 6633333
" />
</g><text x="1800000.000000" y="6050000.000000"
textLength="2195000.000000" font-size="1333333.000000" lengthAdjust="spacingAndGlyphs"
text-anchor="middle" opacity="0">H2</text>
<g class="stroked-text"><desc>H2</desc>
<path d="M1038095 6002380
L1038095 5002380
" />
<path d="M1038095 5478571
L1609523 5478571
" />
<path d="M1609523 6002380
L1609523 5002380
" />
<path d="M2038095 5097619
L2085714 5050000
L2180952 5002380
L2419047 5002380
L2514285 5050000
L2561904 5097619
L2609523 5192857
L2609523 5288095
L2561904 5430952
L1990476 6002380
L2609523 6002380
" />
</g><g transform="rotate(-90.000000 16310000.000000 41373000.000000)">
<text x="16310000.000000" y="41873000.000000"
textLength="3861667.000000" font-size="1333333.000000" lengthAdjust="spacingAndGlyphs"
text-anchor="middle" opacity="0">100k</text>
</g>
<g class="stroked-text"><desc>100k</desc>
<path d="M16762380 42444428
L16762380 43015857
" />
<path d="M16762380 42730142
L15762380 42730142
L15905238 42825380
L16000476 42920619
L16048095 43015857
" />
<path d="M15762380 41825380
L15762380 41730142
L15810000 41634904
L15857619 41587285
L15952857 41539666
L16143333 41492047
L16381428 41492047
L16571904 41539666
L16667142 41587285
L16714761 41634904
L16762380 41730142
L16762380 41825380
L16714761 41920619
L16667142 41968238
L16571904 42015857
L16381428 42063476
L16143333 42063476
L15952857 42015857
L15857619 41968238
L15810000 41920619
L15762380 41825380
" />
<path d="M15762380 40873000
L15762380 40777761
L15810000 40682523
L15857619 40634904
L15952857 40587285
L16143333 40539666
L16381428 40539666
L16571904 40587285
L16667142 40634904
L16714761 40682523
L16762380 40777761
L16762380 40873000
L16714761 40968238
L16667142 41015857
L16571904 41063476
L16381428 41111095
L16143333 41111095
L15952857 41063476
L15857619 41015857
L15810000 40968238
L15762380 40873000
" />
<path d="M16762380 40111095
L15762380 40111095
" />
<path d="M16381428 40015857
L16762380 39730142
" />
<path d="M16095714 39730142
L16476666 40111095
" />
</g><g transform="rotate(-90.000000 8700000.000000 32095000.000000)">
<text x="8700000.000000" y="32595000.000000"
textLength="3004524.000000" font-size="1333333.000000" lengthAdjust="spacingAndGlyphs"
text-anchor="middle" opacity="0">RV3</text>
</g>
<g class="stroked-text"><desc>RV3</desc>
<path d="M9152380 32690238
L8676190 33023571
" />
<path d="M9152380 33261666
L8152380 33261666
L8152380 32880714
L8200000 32785476
L8247619 32737857
L8342857 32690238
L8485714 32690238
L8580952 32737857
L8628571 32785476
L8676190 32880714
L8676190 33261666
" />
<path d="M8152380 32404523
L9152380 32071190
L8152380 31737857
" />
<path d="M8152380 31499761
L8152380 30880714
L8533333 31214047
L8533333 31071190
L8580952 30975952
L8628571 30928333
L8723809 30880714
L8961904 30880714
L9057142 30928333
L9104761 30975952
L9152380 31071190
L9152380 31356904
L9104761 31452142
L9057142 31499761
" />
</g><text x="8700000.000000" y="79600000.000000"
textLength="4337857.000000" font-size="1333333.000000" lengthAdjust="spacingAndGlyphs"
text-anchor="middle" opacity="0">CV_IN</text>
<g class="stroked-text"><desc>CV_IN</desc>
<path d="M7438095 79457142
L7390476 79504761
L7247619 79552380
L7152380 79552380
L7009523 79504761
L6914285 79409523
L6866666 79314285
L6819047 79123809
L6819047 78980952
L6866666 78790476
L6914285 78695238
L7009523 78600000
L7152380 78552380
L7247619 78552380
L7390476 78600000
L7438095 78647619
" />
<path d="M7723809 78552380
L8057142 79552380
L8390476 78552380
" />
<path d="M8485714 79647619
L9247619 79647619
" />
<path d="M9485714 79552380
L9485714 78552380
" />
<path d="M9961904 79552380
L9961904 78552380
L10533333 79552380
L10533333 78552380
" />
</g><text x="8700000.000000" y="76600000.000000"
textLength="1909286.000000" font-size="1333333.000000" lengthAdjust="spacingAndGlyphs"
text-anchor="middle" opacity="0">J1</text>
<g class="stroked-text"><desc>J1</desc>
<path d="M8366666 75552380
L8366666 76266666
L8319047 76409523
L8223809 76504761
L8080952 76552380
L7985714 76552380
" />
<path d="M9366666 76552380
L8795238 76552380
" />
<path d="M9080952 76552380
L9080952 75552380
L8985714 75695238
L8890476 75790476
L8795238 75838095
" />
</g><text x="36640000.000000" y="96110000.000000"
textLength="5814048.000000" font-size="1333333.000000" lengthAdjust="spacingAndGlyphs"
text-anchor="middle" opacity="0">BP_OUT</text>
<g class="stroked-text"><desc>BP_OUT</desc>
<path d="M34401904 95538571
L34544761 95586190
L34592380 95633809
L34640000 95729047
L34640000 95871904
L34592380 95967142
L34544761 96014761
L34449523 96062380
L34068571 96062380
L34068571 95062380
L34401904 95062380
L34497142 95110000
L34544761 95157619
L34592380 95252857
L34592380 95348095
L34544761 95443333
L34497142 95490952
L34401904 95538571
L34068571 95538571
" />
<path d="M35068571 96062380
L35068571 95062380
L35449523 95062380
L35544761 95110000
L35592380 95157619
L35640000 95252857
L35640000 95395714
L35592380 95490952
L35544761 95538571
L35449523 95586190
L35068571 95586190
" />
<path d="M35830476 96157619
L36592380 96157619
" />
<path d="M37020952 95062380
L37211428 95062380
L37306666 95110000
L37401904 95205238
L37449523 95395714
L37449523 95729047
L37401904 95919523
L37306666 96014761
L37211428 96062380
L37020952 96062380
L36925714 96014761
L36830476 95919523
L36782857 95729047
L36782857 95395714
L36830476 95205238
L36925714 95110000
L37020952 95062380
" />
<path d="M37878095 95062380
L37878095 95871904
L37925714 95967142
L37973333 96014761
L38068571 96062380
L38259047 96062380
L38354285 96014761
L38401904 95967142
L38449523 95871904
L38449523 95062380
" />
<path d="M38782857 95062380
L39354285 95062380
" />
<path d="M39068571 96062380
L39068571 95062380
" />
</g><text x="36640000.000000" y="93110000.000000"
textLength="1909286.000000" font-size="1333333.000000" lengthAdjust="spacingAndGlyphs"
text-anchor="middle" opacity="0">J3</text>
<g class="stroked-text"><desc>J3</desc>
<path d="M36306666 92062380
L36306666 92776666
L36259047 92919523
L36163809 93014761
L36020952 93062380
L35925714 93062380
" />
<path d="M36687619 92062380
L37306666 92062380
L36973333 92443333
L37116190 92443333
L37211428 92490952
L37259047 92538571
L37306666 92633809
L37306666 92871904
L37259047 92967142
L37211428 93014761
L37116190 93062380
L36830476 93062380
L36735238 93014761
L36687619 92967142
" />
</g></g>
<g style="fill:#000000; fill-opacity:0.0; 
stroke:#000000; stroke-width:100000.000000; stroke-opacity:1; 
stroke-linecap:round; stroke-linejoin:round;">
<path d="M46190000 52646000
L52490000 52646000
" />
<path d="M52490000 50146000
L46190000 50146000
" />
<path d="M46190000 50146000
L46190000 52646000
" />
<path d="M52490000 52646000
L52490000 50146000
" />
<path d="M54420000 51396000
L52490000 51396000
" />
<path d="M44260000 51396000
L46190000 51396000
" />
<path d="M50400000 46594000
L43200000 46594000
" />
<path d="M50400000 49594000
L50400000 46594000
" />
<path d="M43200000 46594000
L43200000 49594000
" />
<path d="M43200000 49594000
L50400000 49594000
" />
<path d="M46190000 56075000
L52490000 56075000
" />
<path d="M52490000 53575000
L46190000 53575000
" />
<path d="M46190000 53575000
L46190000 56075000
" />
<path d="M52490000 56075000
L52490000 53575000
" />
<path d="M54420000 54825000
L52490000 54825000
" />
<path d="M44260000 54825000
L46190000 54825000
" />
<path d="M50400000 56754000
L43200000 56754000
" />
<path d="M50400000 59754000
L50400000 56754000
" />
<path d="M43200000 56754000
L43200000 59754000
" />
<path d="M43200000 59754000
L50400000 59754000
" />
<path d="M49340000 4660000
L49340000 8470000
" />
<path d="M36640000 3390000
L48070000 3390000
" />
<path d="M49340000 8470000
L36640000 8470000
" />
<path d="M48070000 3390000
L49340000 4660000
" />
<path d="M36640000 8470000
L36640000 3390000
" />
<circle cx="49340000.000000" cy="14315000.000000" r="3500000.000000" /> 
<path d="M54090000 9465000
L44590000 9465000
" />
<path d="M44590000 20815000
L44590000 9465000
" />
<path d="M54090000 20815000
L44590000 20815000
" />
<path d="M54090000 20815000
L54090000 9465000
" />
<path d="M44840000 88130000
L53840000 88130000
" />
<path d="M53840000 88130000
L53840000 98530000
" />
<path d="M44840000 88130000
L44840000 98530000
" />
<path d="M44840000 98580000
L53840000 98580000
" />
<path d="M49340000 100610000
L49340000 98580000
" />
<circle cx="49340000.000000" cy="94130000.000000" r="1800000.000000" /> 
<path d="M23940000 100610000
L23940000 98580000
" />
<path d="M19440000 88130000
L19440000 98530000
" />
<path d="M28440000 88130000
L28440000 98530000
" />
<path d="M19440000 88130000
L28440000 88130000
" />
<path d="M19440000 98580000
L28440000 98580000
" />
<circle cx="23940000.000000" cy="94130000.000000" r="1800000.000000" /> 
<circle cx="8700000.000000" cy="14315000.000000" r="3500000.000000" /> 
<path d="M3950000 20815000
L3950000 9465000
" />
<path d="M13450000 9465000
L3950000 9465000
" />
<path d="M13450000 20815000
L3950000 20815000
" />
<path d="M13450000 20815000
L13450000 9465000
" />
<path d="M4200000 88130000
L13200000 88130000
" />
<path d="M4200000 88130000
L4200000 98530000
" />
<path d="M4200000 98580000
L13200000 98580000
" />
<path d="M8700000 100610000
L8700000 98580000
" />
<path d="M13200000 88130000
L13200000 98530000
" />
<circle cx="8700000.000000" cy="94130000.000000" r="1800000.000000" /> 
<path d="M13450000 60185000
L3950000 60185000
" />
<path d="M13450000 48835000
L3950000 48835000
" />
<path d="M13450000 60185000
L13450000 48835000
" />
<path d="M3950000 60185000
L3950000 48835000
" />
<circle cx="8700000.000000" cy="53685000.000000" r="3500000.000000" /> 
<circle cx="8700000.000000" cy="32095000.000000" r="3500000.000000" /> 
<path d="M3950000 38595000
L3950000 27245000
" />
<path d="M13450000 38595000
L3950000 38595000
" />
<path d="M13450000 27245000
L3950000 27245000
" />
<path d="M13450000 38595000
L13450000 27245000
" />
<path d="M4200000 71620000
L4200000 82020000
" />
<path d="M4200000 82070000
L13200000 82070000
" />
<path d="M13200000 71620000
L13200000 82020000
" />
<path d="M8700000 84100000
L8700000 82070000
" />
<path d="M4200000 71620000
L13200000 71620000
" />
<circle cx="8700000.000000" cy="77620000.000000" r="1800000.000000" /> 
<path d="M32140000 98580000
L41140000 98580000
" />
<path d="M32140000 88130000
L41140000 88130000
" />
<path d="M36640000 100610000
L36640000 98580000
" />
<path d="M41140000 88130000
L41140000 98530000
" />
<path d="M32140000 88130000
L32140000 98530000
" />
<circle cx="36640000.000000" cy="94130000.000000" r="1800000.000000" /> 
<g >
</g>
<g >
</g>
<g >
</g>
<g >
</g>
<g >
</g>
<g >
</g>
<g >
</g>
<g >
</g>
<g >
</g>
<g >
</g>
<g >
</g>
<g >
</g>
<g >
</g>
<g >
</g>
<g >
</g>
<g >
</g>
<g >
</g>
<g >
</g>
<g >
</g>
<g >
</g>
<g >
</g>
<g >
</g>
<g >
</g>
<g >
</g>
<g >
</g>
<g >
</g>
<g >
</g>
<g >
</g>
<g >
</g>
<g >
</g>
<g >
</g>
<g >
</g>
<g >
</g>
<g >
</g>
<g >
</g>
<g >
</g>
<g >
</g>
<g >
</g>
<g >
</g>
<g >
</g>
<g >
</g>
<g >
</g>
<g >
</g>
<g >
</g>
<g >
</g>
<g >
</g>
<g >
</g>
<g >
</g>
<g >
</g>
<g >
</g>
<g >
</g>
<g >
</g>
<g >
</g>
<g >
</g>
<g >
</g>
<g >
</g>
<g >
</g>
<g >
</g>
<g >
</g>
<g >
</g>
<g >
</g>
</g>
<g style="fill:#000000; fill-opacity:0.0; 
stroke:#000000; stroke-width:100000.000000; stroke-opacity:1; 
stroke-linecap:round; stroke-linejoin:round;">
<path d="M58050000 50000
L50000 50000
" />
<path d="M50000 50000
L50000 105050000
" />
<path d="M50000 105050000
L58050000 105050000
" />
<path d="M58050000 105050000
L58050000 50000
" />
<g >
</g>
<g >
</g>
<g >
</g>
<g >
</g>
<g >
</g>
<g >
</g>
<g >
</g>
<g >
</g>
<g >
</g>
<g >
</g>
<g >
</g>
<g >
</g>
<g >
</g>
<g >
</g>
<g >
</g>
<g >
</g>
<g >
</g>
<g >
</g>
<g >
</g>
<g >
</g>
<g >
</g>
<g >
</g>
<g >
</g>
<g >
</g>
<g >
</g>
<g >
</g>
<g >
</g>
<g >
</g>
<g >
</g>
<g >
</g>
<g >
</g>
<g >
</g>
<g >
</g>
<g >
</g>
<g >
</g>
<g >
</g>
<g >
</g>
<g >
</g>
<g >
</g>
<g >
</g>
<g >
</g>
<g >
</g>
<g >
</g>
<g >
</g>
<g >
</g>
<g >
</g>
<g >
</g>
<g >
</g>
<g >
</g>
<g >
</g>
<g >
</g>
<g >
</g>
<g >
</g>
<g >
</g>
<g >
</g>
<g >
</g>
<g >
</g>
<g >
</g>
<g >
</g>
<g >
</g>
<g >
</g>
</g> 
</svg>
