<?xml version="1.0" encoding="UTF-8"?>
<svg id="Art" xmlns="http://www.w3.org/2000/svg" width="61.57mm" height="128.85mm" viewBox="0 0 174.54 365.25">
  <defs>
    <style>
      .cls-1 {
        stroke: #000;
        stroke-width: .5px;
      }
    </style>
  </defs>
  <path class="cls-1" d="M157.3,196.04c-.29-.97-.59-1.73-1.01-2.42-.53-.86-1.28-1.31-1.84-1.74-1.54-1.19-3.23-1.65-3.62-1.83-3.38-1.55-3.28-1.91-7.74-4.4-4.52-2.54-9.38-3.98-14.54-4.4-4.14-.33-8.24-.14-12.28,.89-.16,.04-.33,.07-.48,.04-.89-.17-1.78-.41-2.68-.54-2.48-.37-4.95-.78-7.45-1.01-2.09-.19-4.21-.18-6.31-.19-2.82-.01-5.65-.03-8.47,.1-2.99,.14-5.91,.8-8.56,2.21-2.54,1.36-4.99,2.9-7.42,4.43-1.03,.65-1.97,1.45-2.9,2.25-.62,.53-.97,1.27-.96,2.1,.02,.98,.07,1.97,.22,2.94,.42,2.8,1.65,5.33,3.04,7.68,1.8,3.01,3.99,5.81,5.58,8.94,2.01,3.96,4.17,7.82,6.74,11.46,3.67,5.2,7.93,9.79,13.2,13.41,3.08,2.11,6.3,3.94,9.9,5.01,3.43,1.03,6.94,1.53,10.5,1.67,3.54,.14,7.05-.07,10.55-.62,2.65-.43,5.28-.99,7.78-2.03,4.08-1.7,7.68-4.16,10.97-7.09,2.51-2.23,4.35-4.89,5.38-8.11,1.38-4.26,1.95-8.64,2.03-13.09,.06-3.3,.09-3.53,.45-11.51,.04-1.11,.09-2.03,.12-2.65,0-.36-.03-.89-.2-1.5Zm-1.48,4.56c-.3,3.69-.36,7.39-.42,11.09-.08,4.29-.63,8.52-1.96,12.63-1,3.1-2.77,5.66-5.19,7.81-3.17,2.82-6.64,5.2-10.58,6.84-2.4,1-4.94,1.54-7.5,1.95-3.36,.54-6.76,.73-10.16,.6-3.44-.13-6.82-.62-10.12-1.61-3.48-1.03-6.59-2.79-9.55-4.83-5.08-3.49-9.19-7.92-12.73-12.93-2.47-3.5-4.56-7.23-6.49-11.04-1.54-3.02-3.32-5.89-5.25-8.67-1.54-2.22-2.65-4.66-3.07-7.35-.14-.94-.19-1.89-.2-2.84-.02-.8,.33-1.51,.92-2.03,.89-.76,1.8-1.54,2.79-2.16,2.35-1.48,4.71-2.96,7.16-4.27,2.55-1.37,5.37-2,8.25-2.13,2.72-.13,5.44-.11,8.17-.1,2.03,.01,4.06,0,6.08,.18,2.41,.22,4.79,.62,7.19,.98,.86,.13,1.71,.35,2.58,.51,.14,.03,.31,.01,.46-.03,3.89-1,7.85-1.17,11.83-.85,4.98,.39,9.66,1.79,14.02,4.23,2.5,1.4,4.98,2.83,7.47,4.25-.01,.04-.02,.07-.02,.11-.58,.1-1.16,.2-1.74,.29-2.18,.34-4.29,.87-6.16,2.1-.57,.37-1.1,.79-1.68,1.22-.06-.31-.09-.59-.16-.86-.03-.1-.13-.25-.21-.26-1.1-.2-2.21-.4-3.31-.55-.47-.07-.95,0-1.42-.02-.33-.01-.48,.12-.59,.43-.33,1.01-.7,2.01-1.06,3.02-.03,.1-.08,.21-.18,.43-.07-.28-.1-.45-.15-.61-.31-.96-.62-1.92-.93-2.88-.07-.22-.17-.35-.46-.33-1.52,.09-3.05,.16-4.57,.22-.32,0-.47,.11-.62,.4-.69,1.46-1.41,2.89-2.13,4.34-.03-.01-.07-.02-.11-.03-.03-.1-.06-.2-.08-.3-.22-1.4-.71-2.7-1.37-3.94-.12-.23-.26-.33-.53-.32-2.89,.05-5.77,.1-8.65,.12-.35,0-.53,.11-.62,.44-.46,1.66-.92,3.33-1.38,4.99-.05,.17-.08,.35-.2,.53-.08-.32-.15-.63-.23-.94-.45-1.69-1.19-3.24-2.22-4.65-.21-.28-.43-.37-.76-.38-2.52-.09-5.04-.17-7.56-.3-.45-.02-.56,.13-.62,.51-.19,1.27-.41,2.53-.94,3.72-.13,.29-.25,.57-.44,.99-.5-.88-.98-1.64-1.38-2.44-.29-.6-.49-1.26-.68-1.9-.16-.53-.44-.87-1-.94-1.17-.15-2.34-.29-3.5-.45-.28-.04-.38,.07-.48,.3-.59,1.36-1.2,2.71-1.83,4.15-.09-.21-.16-.35-.21-.49-.46-1.22-.95-2.44-1.38-3.68-.14-.4-.37-.47-.71-.4-1.19,.22-2.38,.43-3.55,.69-1.09,.24-1.08,.27-1.08,1.37v1.57s-.11,.03-.16,.04c-.27-.68-.57-1.35-.81-2.05-.12-.35-.25-.52-.65-.49-.57,.04-1.15,.02-1.73,.01-.26-.01-.38,.06-.38,.35-.03,2.2,.31,4.33,1.12,6.38,.14,.36,.34,.71,.57,1.01,.54,.73,1.2,.82,1.95,.32,.07-.04,.14-.09,.21-.13,.02,.02,.04,.03,.04,.04,.32,1.94,2.43,2.5,3.99,1.85,.89-.37,1.69-.96,2.52-1.46,.13-.08,.25-.19,.39-.3,.79,2.11,2.55,2.83,4.52,3.22,.62,.13,1.26,.2,1.88,.19,1.11-.02,1.95-.61,2.65-1.43,.07-.07,.13-.14,.22-.25,.05,.09,.1,.14,.12,.2,.6,1.48,1.7,2.21,3.29,2.32,2.38,.15,4.75,.09,7.11-.26,1.16-.17,1.72-.73,1.96-1.86,.06,.05,.12,.08,.15,.13,.69,1.17,1.73,1.7,3.06,1.64,2.09-.1,4.18-.16,6.25-.36,1.53-.15,2.43-1.2,2.94-2.6,.03-.08,.06-.16,.08-.25,.02-.06,.04-.13,.08-.26,.09,.12,.16,.2,.22,.29,.79,1.16,2.22,1.71,3.59,1.41,1.2-.25,2.38-.57,3.49-1.09,1.21-.56,1.76-1.56,1.98-2.8,.03-.16,.05-.31,.07-.46,.66-.08,1.31-.14,1.94-.26,.83-.15,1.56-.54,2.22-1.09,2.33-1.95,4.81-3.66,7.59-4.91,1.3-.59,2.71-.77,4.1-.99,1.12-.18,2.25-.3,3.38-.35,1.38-.08,2.16,.25,2.49,2.23,.3,1.81-.17,3.52-.76,5.2-.98,2.78-2.36,5.38-3.8,7.93-.78,1.38-1.59,2.74-2.46,4.07-1.03,1.58-2.48,2.79-3.84,4.08-.88,.84-1.82,1.65-2.45,2.72-.6,1.03-.93,2.13-.85,3.34,.02,.26-.05,.39-.3,.48-1.54,.55-3.08,1.12-4.63,1.65-.89,.31-1.77,.63-2.21,1.38-.53-.11-.99-.3-1.45-.29-1.46,.05-2.91,.17-4.36,.27-.94,.07-1.77,.38-2.23,1.35-.31-.53-.81-.66-1.32-.68-1.97-.07-3.92,.02-5.76,.83-.31,.13-.61,.32-.8,.42-.54-.22-.99-.49-1.48-.58-1.41-.27-2.83-.51-4.26-.68-.64-.07-1.31,.08-1.98,.11-.12,.01-.31-.06-.37-.15-.3-.55-.75-.94-1.29-1.17-.88-.36-1.78-.66-2.68-.95-.23-.08-.34-.15-.42-.4-.28-.96-.92-1.65-1.78-2.12-.21-.12-.47-.16-.7-.17-.35-.01-.55-.16-.64-.47-.11-.36-.19-.73-.27-1.09-.21-.94-.69-1.66-1.55-2.13-.11-.06-.18-.24-.22-.38-.14-.51-.19-1.05-.41-1.52-.3-.63-.85-1-1.57-1.07-.54-.06-.68-.23-.74-.77-.02-.19-.05-.37-.06-.56-.06-.73-.41-1.32-.98-1.76-.7-.55-1.24-1.19-1.52-2.08-.31-.97-1.41-1.55-2.42-1.26-1.45,.42-2.63,.02-3.74-.86-.05-.04-.1-.07-.14-.1-1.24-.84-2.08-.83-3.19,.16-.47,.41-.82,.96-1.19,1.47-.06,.09-.03,.34,.05,.43,3.84,3.97,7.41,8.22,11.73,11.71,1.91,1.54,4.03,2.72,6.27,3.7,3.7,1.62,7.52,2.91,11.52,3.52,2.73,.42,5.49,.66,8.24,.91,2.46,.24,4.92,.09,7.36-.34,3.78-.67,7.44-1.69,10.75-3.69,1.51-.91,2.9-1.98,4.09-3.29,.41-.45,.75-.97,1.12-1.46-.03-.02-.06-.05-.09-.08-1.04,.49-2.08,.98-3.16,1.49-.07-.64,.07-1.2,.3-1.74,.43-1,1.15-1.78,1.92-2.53,.99-.98,2.02-1.94,2.98-2.95,1.59-1.65,2.73-3.63,3.85-5.61,1.47-2.57,2.94-5.15,3.95-7.95,.28-.78,.5-1.58,.82-2.37-.04,.85-.05,1.7-.12,2.55Z"/>
</svg>