<?xml version="1.0" encoding="UTF-8"?><svg xmlns="http://www.w3.org/2000/svg" viewBox="0 0 174.5371 365.252"><defs><style>.d,.e,.f{fill:#fff;}.g{fill:none;stroke-width:.5px;}.g,.f{stroke:#fff;}.e{stroke:#231f20;stroke-miterlimit:10;}</style></defs><g id="a"><rect x=".5" y=".5" width="171.4961" height="364.252"/></g><g id="b"><g><path class="d" d="M134.9834,273.3687h8.52v1.4399h-3.4683v5.1362h-1.584v-5.1362h-3.4678v-1.4399Z"/><path class="d" d="M153.8354,276.5127c0,.3281-.062,.6343-.186,.918-.124,.2842-.292,.5342-.5039,.75-.2119,.2163-.4619,.3862-.75,.5103s-.5962,.186-.9238,.186h-5.9521v1.0679h-1.4399v-6.5762l7.3921-.0117c.3276,0,.6357,.062,.9238,.186s.5381,.2939,.75,.5098c.2119,.2163,.3799,.4683,.5039,.7559,.124,.2881,.186,.5962,.186,.9243v.7798Zm-2.3638,.9121c.2559,0,.4741-.0879,.6538-.2642,.1802-.1758,.27-.3916,.27-.6479v-.7798c0-.2559-.0898-.4741-.27-.6543-.1797-.1797-.3979-.27-.6538-.27h-5.9521v2.6162h5.9521Z"/></g><g><path class="d" d="M29.4009,278.5049v1.4399h-7.3921c-.3281,0-.6357-.062-.9238-.186s-.5381-.292-.75-.5039-.3799-.4619-.5039-.75-.186-.5957-.186-.9238v-1.8481c0-.3281,.062-.6362,.186-.9243,.124-.2876,.292-.5396,.5039-.7559,.2119-.2158,.4619-.3857,.75-.5098s.5957-.186,.9238-.186l7.3921,.0117v1.4399h-7.3921c-.2559,0-.4736,.0903-.6538,.27-.1802,.1802-.27,.3984-.27,.6543v1.8481c0,.2559,.0898,.4736,.27,.6538s.3979,.27,.6538,.27h7.3921Z"/><path class="d" d="M31.5249,273.3687l2.916,5.1963c.0962,.1602,.2358,.2422,.4199,.2461s.3242-.0781,.4204-.2461l2.916-5.1963h1.6318l-3.312,5.8921c-.1841,.3281-.4258,.5723-.7261,.7319-.2998,.1602-.6118,.2402-.936,.2402-.3237,0-.6357-.0801-.936-.2402-.2998-.1597-.5381-.4038-.7139-.7319l-3.312-5.8921h1.6318Z"/></g><g><path class="d" d="M108.1162,276.6567c.2637,.3203,.4136,.6719,.4497,1.0562,.0361,.3838-.022,.7402-.1738,1.0679-.1523,.3281-.3843,.604-.6963,.8281s-.6836,.3359-1.1157,.3359h-7.8721v-6.5762h7.8721c.4321,0,.8037,.1123,1.1157,.3359,.312,.2241,.5439,.5005,.6963,.8281,.1519,.3281,.21,.6841,.1738,1.0679-.0361,.3843-.186,.7363-.4497,1.0562Zm-7.9683-.7197h6.4321c.1841,0,.3218-.0581,.4141-.1743,.0918-.1157,.1377-.2461,.1377-.3896,0-.144-.0459-.2739-.1377-.3901-.0923-.1157-.23-.1743-.4141-.1743h-6.4321v1.1284Zm0,2.5679h6.4321c.1841,0,.3218-.0581,.4141-.1738,.0918-.1162,.1377-.2461,.1377-.3901s-.0459-.2739-.1377-.3901c-.0923-.1157-.23-.1738-.4141-.1738h-6.4321v1.1279Z"/><path class="d" d="M118.8081,276.5127c0,.3281-.062,.6343-.186,.918-.124,.2842-.292,.5342-.5039,.75-.2119,.2163-.4619,.3862-.75,.5103s-.5962,.186-.9238,.186h-5.9521v1.0679h-1.4399v-6.5762l7.3921-.0117c.3276,0,.6357,.062,.9238,.186s.5381,.2939,.75,.5098c.2119,.2163,.3799,.4683,.5039,.7559,.124,.2881,.186,.5962,.186,.9243v.7798Zm-2.3638,.9121c.2559,0,.4741-.0879,.6538-.2642,.1802-.1758,.27-.3916,.27-.6479v-.7798c0-.2559-.0898-.4741-.27-.6543-.1797-.1797-.3979-.27-.6538-.27h-5.9521v2.6162h5.9521Z"/></g><g><path class="d" d="M24.6016,235.9253h-1.4399v-6.5762h1.4399v6.5762Z"/><path class="d" d="M34.2017,229.3491v5.772c0,.2002-.0522,.374-.1558,.522-.1045,.1484-.2344,.2603-.3901,.3364-.1562,.0757-.3262,.1079-.5103,.0957-.1841-.0117-.3521-.082-.5039-.21l-5.8677-4.7397v4.7998h-1.4282v-5.772c0-.1997,.0518-.376,.1558-.5278s.2344-.2642,.3901-.3364c.1562-.0718,.3242-.1016,.5039-.0898,.1802,.0122,.3462,.082,.498,.21l5.8804,4.728v-4.7881h1.4277Z"/></g><g><path class="d" d="M16.7759,168.3862v1.4399h-7.3921c-.3281,0-.6357-.062-.9238-.186s-.5381-.292-.75-.5039-.3799-.4619-.5039-.75-.186-.5957-.186-.9238v-1.8481c0-.3281,.062-.6362,.186-.9243,.124-.2876,.292-.5396,.5039-.7559,.2119-.2158,.4619-.3857,.75-.5098s.5957-.186,.9238-.186l7.3921,.0117v1.4399h-7.3921c-.2559,0-.4736,.0903-.6538,.27-.1802,.1802-.27,.3984-.27,.6543v1.8481c0,.2559,.0898,.4736,.27,.6538s.3979,.27,.6538,.27h7.3921Z"/><path class="d" d="M18.8999,163.25l2.916,5.1963c.0962,.1602,.2358,.2422,.4199,.2461s.3242-.0781,.4204-.2461l2.916-5.1963h1.6318l-3.312,5.8921c-.1841,.3281-.4258,.5723-.7261,.7319-.2998,.1602-.6118,.2402-.936,.2402-.3237,0-.6357-.0801-.936-.2402-.2998-.1597-.5381-.4038-.7139-.7319l-3.312-5.8921h1.6318Z"/><path class="d" d="M35.8916,163.2144h4.5845c.3276,0,.6357,.062,.9238,.186s.5381,.2939,.75,.5098,.3799,.4678,.5039,.7559,.186,.5962,.186,.9243v4.2358h-1.4399v-1.584h-6.4321v1.584h-1.4399v-4.2358c0-.3281,.062-.6362,.186-.9243s.292-.54,.5039-.7559,.4619-.3857,.75-.5098,.5957-.186,.9238-.186Zm-.9238,3.5757h6.4321v-1.1997c0-.2559-.0898-.4741-.27-.6543-.1802-.1797-.3979-.27-.6538-.27h-4.5845c-.2559,0-.4736,.0903-.6538,.27-.1802,.1802-.27,.3984-.27,.6543v1.1997Z"/><path class="d" d="M43.5479,163.25h8.52v1.4399h-3.4683v5.1362h-1.584v-5.1362h-3.4678v-1.4399Z"/><path class="d" d="M52.6436,163.25h8.52v1.4399h-3.4683v5.1362h-1.584v-5.1362h-3.4678v-1.4399Z"/></g><g><path class="d" d="M7.002,107.4146h-1.4399v-6.5762h1.4399v6.5762Z"/><path class="d" d="M16.6021,100.8384v5.772c0,.2002-.0522,.374-.1558,.522-.1045,.1484-.2344,.2603-.3901,.3364-.1562,.0757-.3262,.1079-.5103,.0957-.1841-.0117-.3521-.082-.5039-.21l-5.8677-4.7397v4.7998h-1.4282v-5.772c0-.1997,.0518-.376,.1558-.5278s.2344-.2642,.3901-.3364c.1562-.0718,.3242-.1016,.5039-.0898,.1802,.0122,.3462,.082,.498,.21l5.8804,4.728v-4.7881h1.4277Z"/><path class="d" d="M25.7217,100.8027h4.5845c.3276,0,.6357,.062,.9238,.186s.5381,.2939,.75,.5098,.3799,.4678,.5039,.7559,.186,.5962,.186,.9243v4.2358h-1.4399v-1.584h-6.4321v1.584h-1.4399v-4.2358c0-.3281,.062-.6362,.186-.9243s.292-.54,.5039-.7559,.4619-.3857,.75-.5098,.5957-.186,.9238-.186Zm-.9238,3.5757h6.4321v-1.1997c0-.2559-.0898-.4741-.27-.6543-.1802-.1797-.3979-.27-.6538-.27h-4.5845c-.2559,0-.4736,.0903-.6538,.27-.1802,.1802-.27,.3984-.27,.6543v1.1997Z"/><path class="d" d="M33.3779,100.8384h8.52v1.4399h-3.4683v5.1362h-1.584v-5.1362h-3.4678v-1.4399Z"/><path class="d" d="M42.4736,100.8384h8.52v1.4399h-3.4683v5.1362h-1.584v-5.1362h-3.4678v-1.4399Z"/></g><g><path class="d" d="M12.7759,55.9097v1.4399H5.3838c-.3281,0-.6357-.062-.9238-.186s-.5381-.292-.75-.5039-.3799-.4619-.5039-.75-.186-.5957-.186-.9238v-1.8481c0-.3281,.062-.6362,.186-.9243,.124-.2876,.292-.5396,.5039-.7559,.2119-.2158,.4619-.3857,.75-.5098s.5957-.186,.9238-.186l7.3921,.0117v1.4399H5.3838c-.2559,0-.4736,.0903-.6538,.27-.1802,.1802-.27,.3984-.27,.6543v1.8481c0,.2559,.0898,.4736,.27,.6538s.3979,.27,.6538,.27h7.3921Z"/><path class="d" d="M13.2681,50.7495h1.4399v4.2363c0,.2559,.0898,.4736,.27,.6538s.3979,.27,.6538,.27h4.5845c.2559,0,.4717-.0898,.6479-.27,.1758-.1802,.2637-.3979,.2637-.6538v-4.2363h1.4521v4.2363c0,.3281-.062,.6357-.186,.9238s-.2939,.5381-.5098,.75c-.2163,.2119-.4683,.3799-.7563,.5039s-.5918,.186-.9116,.186h-4.5845c-.3281,0-.6357-.062-.9238-.186s-.5381-.292-.75-.5039-.3799-.4619-.5039-.75-.186-.5957-.186-.9238v-4.2363Z"/><path class="d" d="M23.2637,50.7734h8.52v1.4399h-3.4683v5.1362h-1.584v-5.1362h-3.4678v-1.4399Z"/><path class="d" d="M35.6357,57.3496c-.4561,0-.8818-.0859-1.2778-.2578-.396-.1724-.7441-.4082-1.0439-.708-.3003-.3003-.5361-.6479-.708-1.0439-.1724-.396-.2583-.8223-.2583-1.2783s.0859-.8838,.2583-1.2837c.1719-.4004,.4077-.748,.708-1.0444,.2998-.2959,.6479-.5298,1.0439-.7017s.8218-.2583,1.2778-.2583h4.9082c.4561,0,.8838,.0864,1.2837,.2583,.4004,.1719,.75,.4058,1.0503,.7017,.2998,.2964,.5356,.644,.708,1.0444,.1719,.3999,.2578,.8276,.2578,1.2837s-.0859,.8823-.2578,1.2783c-.1724,.396-.4082,.7437-.708,1.0439-.3003,.2998-.6499,.5356-1.0503,.708-.3999,.1719-.8276,.2578-1.2837,.2578h-4.9082Zm4.9082-1.4399c.2559,0,.4961-.0479,.7197-.144,.2241-.0962,.4204-.228,.5884-.396s.2998-.3638,.396-.5879c.0957-.2241,.144-.4639,.144-.7202,0-.2559-.0483-.4961-.144-.7197-.0962-.2241-.228-.4204-.396-.5884s-.3643-.2998-.5884-.396c-.2236-.0957-.4639-.144-.7197-.144h-4.9082c-.2559,0-.4961,.0483-.7197,.144-.2241,.0962-.4199,.228-.5884,.396-.168,.168-.2998,.3643-.396,.5884-.0957,.2236-.1436,.4639-.1436,.7197,0,.2563,.0479,.4961,.1436,.7202,.0962,.2241,.228,.4199,.396,.5879,.1685,.168,.3643,.2998,.5884,.396,.2236,.0962,.4639,.144,.7197,.144h4.9082Z"/><path class="d" d="M45.5474,57.3496h-1.4399v-4.2119c0-.3281,.062-.6362,.186-.9243,.124-.2876,.292-.5376,.5039-.75,.2119-.2114,.4619-.3799,.75-.5039s.5957-.186,.9238-.186h5.5322v1.4399h-5.5322c-.2559,0-.4736,.0903-.6538,.27-.1802,.1802-.27,.3984-.27,.6543v.9238h6.4561v1.4399h-6.4561v1.8481Z"/><path class="d" d="M53.9478,57.3496h-1.4399v-4.2119c0-.3281,.062-.6362,.186-.9243,.124-.2876,.292-.5376,.5039-.75,.2119-.2114,.4619-.3799,.75-.5039s.5957-.186,.9238-.186h5.5322v1.4399h-5.5322c-.2559,0-.4736,.0903-.6538,.27-.1802,.1802-.27,.3984-.27,.6543v.9238h6.4561v1.4399h-6.4561v1.8481Z"/></g><g><path class="d" d="M61.166,128.5444h10.166l-4.5542-5.6582c-.3374-.4292-.5254-.8892-.5635-1.3799s.0464-.9468,.2529-1.3687c.207-.4214,.5137-.7739,.9204-1.0581,.4058-.2832,.8853-.4253,1.4375-.4253h10.1426v2.7368h-9.8896l4.5308,5.6582c.3374,.4292,.5254,.8892,.5635,1.3799s-.0425,.9468-.2412,1.3687c-.1997,.4219-.5024,.7744-.9087,1.0581s-.8853,.4253-1.4375,.4253h-10.4189v-2.7368Z"/><path class="d" d="M89.916,131.2812h-7.2222c-.6289,0-1.2188-.1187-1.771-.3564-.5518-.2378-1.0312-.5596-1.4375-.9658s-.728-.8857-.9658-1.4375c-.2378-.5522-.3564-1.1421-.3564-1.771s.1187-1.2192,.3564-1.771c.2378-.5522,.5596-1.0312,.9658-1.4375s.8857-.7285,1.4375-.9663c.5522-.2373,1.1421-.3564,1.771-.3564h7.1074c.6284,0,1.2188,.1191,1.771,.3564,.5518,.2378,1.0308,.5601,1.4375,.9663,.4058,.4062,.728,.8853,.9658,1.4375,.2373,.5518,.3564,1.1421,.3564,1.771v4.5308h-2.7598v-4.5308c0-.4907-.1729-.9087-.5176-1.2539-.3452-.3447-.7632-.5171-1.2534-.5171h-7.1074c-.4907,0-.9082,.1724-1.2534,.5171-.3447,.3452-.5176,.7632-.5176,1.2539s.1729,.9082,.5176,1.2534c.3452,.3447,.7627,.5176,1.2534,.5176h7.2222v2.7598Z"/><path class="d" d="M98.748,118.6772l5.5889,9.959c.1841,.3071,.4521,.4639,.8052,.4717,.3525,.0078,.6211-.1499,.8052-.4717l5.5889-9.959h3.1279l-6.3481,11.293c-.3525,.6289-.8164,1.0967-1.3911,1.4028-.5752,.3066-1.1733,.46-1.7939,.46-.6211,0-1.2192-.1533-1.7944-.46-.5747-.3062-1.0312-.7739-1.3682-1.4028l-6.3481-11.293h3.1279Z"/><path class="d" d="M125.3359,131.2812h-7.2222c-.6289,0-1.2188-.1187-1.771-.3564-.5518-.2378-1.0312-.5596-1.4375-.9658s-.728-.8857-.9658-1.4375c-.2378-.5522-.3564-1.1421-.3564-1.771s.1187-1.2192,.3564-1.771c.2378-.5522,.5596-1.0312,.9658-1.4375s.8857-.7285,1.4375-.9663c.5522-.2373,1.1421-.3564,1.771-.3564h7.1074c.6284,0,1.2188,.1191,1.771,.3564,.5518,.2378,1.0308,.5601,1.4375,.9663,.4058,.4062,.728,.8853,.9658,1.4375,.2373,.5518,.3564,1.1421,.3564,1.771v4.5308h-2.7598v-4.5308c0-.4907-.1729-.9087-.5176-1.2539-.3452-.3447-.7632-.5171-1.2534-.5171h-7.1074c-.4907,0-.9082,.1724-1.2534,.5171-.3447,.3452-.5176,.7632-.5176,1.2539s.1729,.9082,.5176,1.2534c.3452,.3447,.7627,.5176,1.2534,.5176h7.2222v2.7598Z"/><path class="d" d="M143.3682,132.3623c.3066,0,.5635-.1035,.7705-.3105s.3105-.4639,.3105-.7705v-4.5308c0-.4907-.1729-.9087-.5176-1.2539-.3452-.3447-.7632-.5171-1.2534-.5171h-7.1074c-.4907,0-.9082,.1724-1.2534,.5171-.3447,.3452-.5176,.7632-.5176,1.2539s.1729,.9082,.5176,1.2534c.3452,.3447,.7627,.5176,1.2534,.5176h7.2222v2.7598h-7.2222c-.6289,0-1.2188-.1187-1.771-.3564-.5518-.2378-1.0312-.5596-1.4375-.9658s-.728-.8857-.9658-1.4375c-.2378-.5522-.3564-1.1421-.3564-1.771s.1187-1.2192,.3564-1.771c.2378-.5522,.5596-1.0312,.9658-1.4375s.8857-.7285,1.4375-.9663c.5522-.2373,1.1421-.3564,1.771-.3564h7.1074c.6284,0,1.2188,.1191,1.771,.3564,.5518,.2378,1.0308,.5601,1.4375,.9663,.4058,.4062,.728,.8853,.9658,1.4375,.2373,.5518,.3564,1.1421,.3564,1.771v4.5308c0,.5366-.0996,1.0386-.2988,1.5063-.1997,.4678-.4756,.874-.8281,1.2192-.353,.3447-.7632,.6172-1.2305,.8164-.4678,.1992-.9624,.2988-1.4834,.2988v-2.7598Z"/><path class="d" d="M164.4824,128.5215v2.7598h-10.6724c-.6289,0-1.2188-.1187-1.771-.3564-.5518-.2378-1.0312-.5596-1.4375-.9658s-.728-.8857-.9658-1.4375c-.2378-.5522-.3564-1.1421-.3564-1.771s.1187-1.2192,.3564-1.771c.2378-.5522,.5596-1.0312,.9658-1.4375s.8857-.7285,1.4375-.9663c.5522-.2373,1.1421-.3564,1.771-.3564h8.9932c.3833,0,.7207,.1001,1.0122,.2988,.291,.1997,.5059,.4487,.644,.7476,.1377,.2993,.1953,.625,.1724,.9775-.0229,.353-.1572,.6748-.4023,.9663l-2.645,3.312h2.8979Zm-10.6724-3.6113c-.2451,0-.4751,.0498-.6899,.1494-.2148,.1001-.4023,.2344-.5635,.4028-.1606,.1689-.2871,.3643-.3794,.5864-.0918,.2222-.1382,.4565-.1382,.7017,0,.4907,.1729,.9082,.5176,1.2534,.3452,.3447,.7627,.5176,1.2534,.5176h4.3701l2.875-3.6113h-7.2451Z"/><path class="d" d="M89.8657,160.2812h-2.1602v-6.3179c0-.4922,.0928-.9541,.2788-1.3862s.438-.8066,.7563-1.125c.3179-.3179,.6929-.5698,1.125-.7559,.4316-.186,.8936-.2788,1.3857-.2788h8.2983v2.1597h-8.2983c-.3843,0-.7109,.1353-.981,.4053s-.4048,.5967-.4048,.981v1.3857h9.6841v2.1602h-9.6841v2.772Z"/><path class="d" d="M102.8257,152.2715h-2.1602v-1.2603h2.1602v1.2603Zm-2.1602,.918h2.1602v7.0918h-2.1602v-7.0918Z"/><path class="d" d="M106.7495,160.2812h-2.1602v-9.27h2.1602v9.27Z"/><path class="d" d="M110.2954,153.1895h5.7417v2.1597h-5.7417v1.3862c0,.3843,.1348,.7109,.4048,.981s.5967,.4048,.981,.4048h5.4722v2.1602h-5.4722c-.4922,0-.9541-.0928-1.3857-.2788-.4321-.186-.8071-.438-1.125-.7563-.3184-.3179-.5703-.6929-.7563-1.125-.186-.4316-.2788-.8936-.2788-1.3857v-5.7241h2.1602v2.1782Z"/><path class="d" d="M129.9512,158.1211v2.1602h-8.3521c-.4922,0-.9541-.0928-1.3857-.2788-.4321-.186-.8071-.438-1.125-.7563-.3184-.3179-.5703-.6929-.7563-1.125-.186-.4316-.2788-.8936-.2788-1.3857s.0928-.9541,.2788-1.3862c.186-.4316,.438-.8066,.7563-1.125,.3179-.3179,.6929-.5698,1.125-.7559,.4316-.186,.8936-.2788,1.3857-.2788h7.0381c.2998,0,.564,.0781,.792,.2339s.396,.3511,.5039,.585,.1533,.4893,.1353,.7651-.1235,.5278-.3149,.7559l-2.0703,2.5918h2.2681Zm-8.3521-2.8257c-.1919,0-.3721,.0391-.54,.1167-.168,.0781-.3149,.1831-.4409,.3149-.126,.1323-.2251,.2852-.2969,.459-.0723,.1743-.1079,.3574-.1079,.5493,0,.3843,.1348,.7109,.4048,.981s.5967,.4048,.981,.4048h3.4199l2.25-2.8257h-5.6699Z"/><path class="d" d="M131.1567,160.2812v-3.5459c0-.4922,.0928-.9541,.2788-1.3862,.186-.4316,.438-.8066,.7563-1.125,.3179-.3179,.6929-.5698,1.125-.7559,.4316-.186,.8936-.2788,1.3857-.2788h3.8701v2.1597h-3.8701c-.3843,0-.7109,.1353-.981,.4053s-.4048,.5972-.4048,.981v3.5459h-2.1602Z"/></g><line class="e" x1="79.148" y1="140.0357" x2="145.5805" y2="140.0357"/><g><path class="d" d="M131.1348,54.0615h4.3442c.2559,0,.4741-.0898,.6538-.27,.1802-.1797,.27-.3979,.27-.6538s-.0898-.4741-.27-.6543c-.1797-.1797-.3979-.27-.6538-.27h-5.9521v5.1362h-1.4399v-6.5762l7.3921-.0117c.3276,0,.6357,.062,.9238,.186s.5381,.2939,.75,.5098c.2119,.2163,.3799,.4683,.5039,.7559,.124,.2881,.186,.5962,.186,.9243s-.062,.6357-.186,.9238-.292,.5381-.5039,.75-.4619,.3804-.75,.5039c-.2881,.1245-.5962,.186-.9238,.186h-.8403l3.1323,1.8481h-2.7959l-4.0801-2.4121c-.104-.0557-.1724-.1338-.2041-.2339-.0322-.1001-.0361-.1982-.0122-.2939,.0244-.0962,.0762-.1782,.1562-.2461,.0796-.0679,.1802-.1021,.2998-.1021Z"/><path class="d" d="M147.9106,55.9097v1.4399h-7.3921c-.3281,0-.6357-.062-.9238-.186s-.5381-.292-.75-.5039-.3799-.4619-.5039-.75-.186-.5957-.186-.9238v-1.8481c0-.3281,.062-.6362,.186-.9243,.124-.2876,.292-.5396,.5039-.7559,.2119-.2158,.4619-.3857,.75-.5098s.5957-.186,.9238-.186l7.3921,.0117v1.4399h-7.3921c-.2559,0-.4736,.0903-.6538,.27-.1802,.1802-.27,.3984-.27,.6543v.1919h7.8721v1.4521h-7.8721v.2041c0,.2559,.0898,.4736,.27,.6538s.3979,.27,.6538,.27h7.3921Z"/><path class="d" d="M148.3667,55.9214h5.3042l-2.376-2.9517c-.1763-.2241-.2744-.4639-.2944-.7202-.02-.2559,.0244-.4937,.1323-.7139s.2681-.4038,.48-.5522c.2119-.1479,.4619-.2217,.75-.2217h5.292v1.4277h-5.1602l2.3643,2.9521c.1758,.2241,.2739,.4639,.2939,.7202,.0195,.2559-.0225,.4937-.126,.7139-.104,.2202-.2622,.4038-.4741,.5518-.2119,.1484-.4619,.2222-.75,.2222h-5.436v-1.4282Z"/></g><g><path class="d" d="M64.4878,275.9727h6.7202v-2.604h1.4517v6.5762h-1.4517v-2.5322h-6.7202v2.5322h-1.4399v-6.5762h1.4399v2.604Z"/><path class="d" d="M83.0156,276.5127c0,.3281-.062,.6343-.186,.918-.124,.2842-.292,.5342-.5039,.75-.2119,.2163-.4619,.3862-.75,.5103s-.5962,.186-.9238,.186h-5.9521v1.0679h-1.4399v-6.5762l7.3921-.0117c.3276,0,.6357,.062,.9238,.186s.5381,.2939,.75,.5098c.2119,.2163,.3799,.4683,.5039,.7559,.124,.2881,.186,.5962,.186,.9243v.7798Zm-2.3638,.9121c.2559,0,.4741-.0879,.6538-.2642,.1802-.1758,.27-.3916,.27-.6479v-.7798c0-.2559-.0898-.4741-.27-.6543-.1797-.1797-.3979-.27-.6538-.27h-5.9521v2.6162h5.9521Z"/></g></g><g id="c"><g><path class="f" d="M145.2769,219.7131l.0905,.0805c-.3699,.4876-.7055,1.0063-1.116,1.4569-1.1899,1.3061-2.5801,2.3754-4.0889,3.2872-3.3174,2.0046-6.9764,3.0262-10.7542,3.6912-2.4372,.429-4.8956,.5779-7.3597,.3458-2.7501-.259-5.508-.4948-8.2359-.9142-4.0012-.6152-7.8216-1.8983-11.5267-3.5179-2.2373-.9779-4.3581-2.1617-6.2625-3.7017-4.321-3.4941-7.8887-7.745-11.7362-11.7146-.0819-.0845-.1106-.339-.0458-.4276,.3717-.508,.7218-1.0542,1.186-1.4676,1.1143-.9922,1.9568-1.0037,3.1884-.1625,.0476,.0325,.0959,.0643,.1409,.1001,1.1087,.8825,2.2952,1.2798,3.7394,.863,1.018-.2938,2.1187,.2883,2.4208,1.2553,.2803,.897,.8203,1.5286,1.5256,2.0803,.5709,.4466,.9135,1.0279,.9736,1.7619,.0153,.1863,.0407,.3718,.0616,.5577,.0616,.5475,.2057,.715,.7429,.7717,.7226,.0763,1.2727,.4424,1.5678,1.0723,.2187,.4668,.2684,1.0112,.4109,1.5161,.0398,.1409,.1085,.3257,.2203,.3859,.8616,.4641,1.3453,1.1888,1.5509,2.1259,.0801,.3652,.1637,.7305,.2679,1.0893,.0892,.3073,.2925,.4642,.6371,.4725,.2366,.0057,.4968,.0539,.7018,.1653,.8672,.4713,1.5038,1.1614,1.7864,2.1222,.073,.2483,.1894,.3224,.4193,.3976,.8997,.2943,1.8017,.5918,2.6736,.9575,.5455,.2288,.9978,.6202,1.2983,1.1635,.0519,.0938,.2454,.1597,.3699,.1545,.6604-.0276,1.3309-.1803,1.9772-.1072,1.4267,.1614,2.8464,.4039,4.2575,.673,.4875,.093,.9412,.3629,1.4836,.5816,.1888-.1014,.482-.2863,.7962-.4232,1.8434-.8033,3.7948-.8953,5.7624-.8248,.5052,.0181,1.0039,.1494,1.317,.6773,.4587-.9705,1.2879-1.2734,2.235-1.3442,1.45-.1084,2.9008-.224,4.3533-.272,.4588-.0151,.9244,.1765,1.4488,.2866,.4484-.7488,1.3217-1.065,2.2181-1.3739,1.5491-.5338,3.0839-1.109,4.6277-1.6582,.2441-.0868,.3216-.216,.3028-.4794-.086-1.2026,.2418-2.3073,.8476-3.3374,.6311-1.0731,1.5639-1.8766,2.4504-2.7189,1.3571-1.2896,2.8041-2.5026,3.8389-4.0833,.8664-1.3235,1.6757-2.6872,2.454-4.0649,1.4444-2.5569,2.8203-5.1518,3.7997-7.931,.5916-1.6786,1.06-3.3927,.7625-5.198-.3263-1.9799-1.1076-2.3098-2.483-2.2377-1.1323,.0593-2.2676,.1708-3.3864,.3521-1.3879,.2249-2.7933,.4049-4.0987,.9918-2.7818,1.2506-5.2629,2.965-7.5901,4.9144-.656,.5495-1.3851,.936-2.2227,1.0884-.631,.1148-1.2721,.1746-1.9356,.2625-.0222,.1449-.0429,.3-.0699,.4541-.2184,1.2439-.7686,2.2379-1.9764,2.8016-1.1187,.5222-2.2917,.8386-3.4916,1.0943-1.373,.2926-2.7993-.2557-3.5937-1.4192-.0587-.086-.1278-.1649-.2189-.2815-.0385,.1253-.0591,.1926-.0798,.2599-.0255,.0826-.0475,.1664-.0772,.2475-.5123,1.3971-1.4108,2.4458-2.9414,2.5974-2.0743,.2054-4.1641,.2604-6.2483,.3571-1.3341,.0619-2.3786-.4611-3.0667-1.6342-.0292-.0497-.0915-.08-.1513-.1303-.2354,1.1298-.792,1.685-1.9603,1.8571-2.3587,.3474-4.7288,.4156-7.1103,.2579-1.588-.1052-2.6869-.8363-3.2827-2.3154-.0243-.0603-.0676-.1129-.1216-.2009-.0909,.1067-.1536,.1807-.2168,.2543-.7013,.8168-1.5441,1.4078-2.6526,1.4287-.6257,.0118-1.264-.0663-1.8794-.1899-1.9683-.3954-3.7299-1.1119-4.5235-3.2231-.1397,.1084-.2539,.2173-.3859,.2961-.8366,.4996-1.6346,1.0948-2.5258,1.4652-1.5562,.6467-3.669,.0842-3.9822-1.8524-.0018-.0109-.0207-.0189-.0467-.0413-.0647,.0423-.1347,.0875-.2042,.1335-.7577,.5018-1.4115,.4105-1.9556-.3182-.2298-.3078-.426-.6551-.5677-1.012-.8126-2.0463-1.1517-4.1788-1.1244-6.3766,.0037-.2985,.1199-.3642,.385-.3582,.5761,.013,1.1546,.0315,1.7286-.0058,.3964-.0258,.5348,.1376,.6535,.4907,.2339,.6961,.5354,1.3695,.8089,2.0523l.1571-.0412c0-.5243,0-1.0487,0-1.573,.0003-1.1028-.005-1.1268,1.0765-1.3653,1.1788-.2599,2.3681-.473,3.5544-.698,.3414-.0647,.5744,.0037,.7141,.4075,.428,1.2371,.9111,2.4552,1.3745,3.68,.0531,.1402,.1169,.2764,.2071,.4878,.638-1.4386,1.2436-2.7905,1.8343-4.149,.0997-.2293,.2047-.3431,.4771-.3054,1.1666,.1615,2.336,.3025,3.5039,.4552,.5547,.0725,.8393,.4112,.9959,.9374,.192,.6449,.3947,1.2966,.688,1.899,.3922,.8054,.876,1.5662,1.3755,2.4427,.1865-.4191,.3143-.7054,.4413-.992,.5249-1.1848,.7496-2.4472,.9406-3.7154,.0583-.3873,.1702-.5385,.6188-.5158,2.5176,.1274,5.0373,.2142,7.5568,.3009,.3294,.0113,.5559,.1028,.7594,.3807,1.0345,1.4123,1.7755,2.96,2.2205,4.6509,.0818,.3107,.1527,.6243,.2286,.9365,.1254-.1758,.1543-.3543,.2022-.5275,.4595-1.6633,.9244-3.3252,1.3821-4.989,.0898-.3263,.2688-.4371,.6212-.4401,2.8813-.0247,5.7625-.0689,8.6435-.1227,.2772-.0052,.4123,.0922,.5339,.3211,.6605,1.2433,1.1523,2.5431,1.372,3.9391,.0161,.102,.0511,.2011,.0773,.3015l.1161,.026c.7134-1.442,1.4387-2.8784,2.1302-4.3308,.1404-.2948,.2993-.3963,.6128-.4078,1.526-.0563,3.0517-.1253,4.576-.2152,.2881-.017,.3887,.1078,.4605,.3315,.3077,.9593,.6169,1.9182,.9216,2.8785,.052,.1638,.0846,.3338,.1532,.6093,.0969-.2253,.1473-.3268,.185-.4329,.357-1.0033,.7244-2.0032,1.0596-3.0137,.1029-.3104,.2572-.4451,.582-.4338,.4734,.0164,.9548-.0465,1.4202,.0169,1.1088,.1511,2.2112,.3515,3.313,.5495,.0845,.0152,.1817,.1588,.2081,.2597,.0715,.273,.108,.5552,.163,.8594,.5845-.4257,1.1137-.8448,1.6757-1.2143,1.8707-1.2298,3.9854-1.7575,6.1618-2.0994,.5809-.0913,1.1599-.194,1.7398-.2915l.0204-.1121c-2.4869-1.4173-4.9653-2.8498-7.4626-4.2486-4.36-2.4421-9.0438-3.8361-14.0219-4.2345-3.9876-.3192-7.9423-.1411-11.837,.8535-.1477,.0377-.3142,.0632-.4605,.0352-.8614-.1651-1.7134-.3886-2.5797-.5168-2.3908-.3538-4.7793-.7563-7.1837-.9748-2.0179-.1834-4.0568-.1723-6.0867-.1799-2.7207-.0102-5.4454-.0336-8.1616,.0929-2.8855,.1344-5.702,.7692-8.2583,2.1355-2.4464,1.3076-4.8023,2.7907-7.153,4.2681-.9927,.6239-1.8974,1.3992-2.7905,2.1658-.5968,.5122-.9389,1.227-.9246,2.0249,.017,.9475,.0634,1.9029,.2065,2.8382,.4127,2.6969,1.5289,5.1299,3.0663,7.349,1.9295,2.7851,3.7114,5.652,5.2459,8.6715,1.9388,3.8152,4.0214,7.5399,6.4967,11.0449,3.5382,5.01,7.6488,9.4387,12.7248,12.9259,2.9669,2.0383,6.0715,3.7976,9.5506,4.8357,3.3056,.9863,6.6865,1.4756,10.1215,1.6079,3.4053,.1311,6.7975-.0642,10.1642-.6019,2.5611-.409,5.0926-.9501,7.5003-1.9517,3.9398-1.6389,7.4024-4.0143,10.5789-6.8387,2.4202-2.152,4.1883-4.7092,5.1893-7.8141,1.3251-4.1101,1.8731-8.3351,1.9534-12.6247,.0693-3.7014,.1275-7.4008,.4288-11.0927,.0692-.8477,.0799-1.7001,.1175-2.5504-.3257,.787-.5467,1.5878-.8259,2.3678-1.004,2.8046-2.474,5.3797-3.9422,7.9567-1.128,1.9799-2.2671,3.9526-3.8534,5.6112-.965,1.0089-1.9865,1.9638-2.9832,2.9425-.7638,.75-1.4875,1.5312-1.9144,2.534-.2302,.5408-.3751,1.0991-.3074,1.7415l3.1615-1.4889Z"/><path d="M145.2769,219.7131l-3.1615,1.4889c-.0677-.6424,.0772-1.2007,.3074-1.7415,.4268-1.0029,1.1506-1.7841,1.9144-2.534,.9966-.9786,2.0182-1.9335,2.9832-2.9425,1.5863-1.6586,2.7254-3.6313,3.8534-5.6112,1.4681-2.577,2.9382-5.1521,3.9422-7.9567,.2792-.78,.5002-1.5808,.8259-2.3678-.0376,.8502-.0483,1.7027-.1175,2.5504-.3013,3.6919-.3594,7.3913-.4288,11.0927-.0803,4.2897-.6283,8.5146-1.9534,12.6247-1.001,3.1049-2.7691,5.6622-5.1893,7.8141-3.1765,2.8244-6.6391,5.1997-10.5789,6.8387-2.4077,1.0016-4.9392,1.5426-7.5003,1.9517-3.3667,.5377-6.7589,.733-10.1642,.6019-3.4349-.1322-6.8158-.6215-10.1215-1.6079-3.4791-1.0381-6.5837-2.7974-9.5506-4.8357-5.076-3.4872-9.1866-7.9159-12.7248-12.9259-2.4753-3.505-4.5579-7.2297-6.4967-11.0449-1.5345-3.0195-3.3164-5.8864-5.2459-8.6715-1.5375-2.2192-2.6536-4.6521-3.0663-7.349-.1431-.9353-.1894-1.8907-.2065-2.8382-.0143-.7979,.3278-1.5127,.9246-2.0249,.8931-.7665,1.7978-1.5419,2.7905-2.1658,2.3507-1.4774,4.7066-2.9605,7.153-4.2681,2.5563-1.3663,5.3729-2.0011,8.2583-2.1355,2.7162-.1265,5.4409-.1031,8.1616-.0929,2.0299,.0076,4.0687-.0035,6.0867,.1799,2.4044,.2185,4.7929,.621,7.1837,.9748,.8664,.1282,1.7183,.3517,2.5797,.5168,.1463,.0281,.3128,.0025,.4605-.0352,3.8948-.9946,7.8495-1.1727,11.837-.8535,4.9781,.3985,9.6619,1.7925,14.0219,4.2345,2.4973,1.3987,4.9757,2.8313,7.4626,4.2486l-.0204,.1121c-.5799,.0975-1.1589,.2003-1.7398,.2915-2.1764,.3419-4.2912,.8696-6.1618,2.0994-.562,.3695-1.0912,.7886-1.6757,1.2143-.055-.3042-.0915-.5864-.163-.8594-.0264-.1009-.1236-.2445-.2081-.2597-1.1018-.1981-2.2041-.3984-3.313-.5495-.4654-.0634-.9468-.0005-1.4202-.0169-.3249-.0112-.4791,.1235-.582,.4338-.3351,1.0106-.7026,2.0104-1.0596,3.0137-.0377,.106-.0882,.2075-.185,.4329-.0686-.2755-.1012-.4455-.1532-.6093-.3047-.9603-.6139-1.9191-.9216-2.8785-.0718-.2237-.1724-.3485-.4605-.3315-1.5243,.09-3.05,.1589-4.576,.2152-.3135,.0116-.4724,.113-.6128,.4078-.6915,1.4525-1.4168,2.8888-2.1302,4.3308l-.1161-.026c-.0262-.1004-.0613-.1995-.0773-.3015-.2197-1.396-.7115-2.6957-1.372-3.9391-.1216-.2289-.2567-.3263-.5339-.3211-2.881,.0538-5.7622,.098-8.6435,.1227-.3523,.003-.5314,.1138-.6212,.4401-.4578,1.6638-.9226,3.3257-1.3821,4.989-.0479,.1732-.0768,.3517-.2022,.5275-.0759-.3122-.1469-.6258-.2286-.9365-.4451-1.6909-1.1861-3.2385-2.2205-4.6509-.2035-.2778-.43-.3693-.7594-.3807-2.5195-.0867-5.0392-.1735-7.5568-.3009-.4486-.0227-.5605,.1285-.6188,.5158-.191,1.2682-.4157,2.5306-.9406,3.7154-.127,.2866-.2548,.5729-.4413,.992-.4995-.8765-.9832-1.6373-1.3755-2.4427-.2934-.6024-.4961-1.254-.688-1.899-.1566-.5261-.4412-.8648-.9959-.9374-1.1678-.1527-2.3373-.2937-3.5039-.4552-.2724-.0377-.3775,.0761-.4771,.3054-.5907,1.3584-1.1963,2.7104-1.8343,4.149-.0901-.2114-.154-.3476-.2071-.4878-.4634-1.2248-.9465-2.4429-1.3745-3.68-.1397-.4039-.3728-.4723-.7141-.4075-1.1863,.225-2.3756,.4381-3.5544,.698-1.0815,.2384-1.0762,.2625-1.0765,1.3653-.0001,.5243,0,1.0487,0,1.573l-.1571,.0412c-.2735-.6828-.575-1.3562-.8089-2.0523-.1186-.3531-.2571-.5164-.6535-.4907-.574,.0373-1.1524,.0188-1.7286,.0058-.2651-.006-.3813,.0597-.385,.3582-.0273,2.1979,.3118,4.3303,1.1244,6.3766,.1418,.357,.3379,.7042,.5677,1.012,.5441,.7287,1.1979,.82,1.9556,.3182,.0695-.046,.1395-.0913,.2042-.1335,.026,.0223,.045,.0304,.0467,.0413,.3132,1.9366,2.4261,2.4991,3.9822,1.8524,.8912-.3703,1.6892-.9656,2.5258-1.4652,.1321-.0789,.2462-.1877,.3859-.2961,.7936,2.1112,2.5552,2.8277,4.5235,3.2231,.6153,.1236,1.2537,.2017,1.8794,.1899,1.1085-.021,1.9513-.612,2.6526-1.4287,.0632-.0736,.1259-.1477,.2168-.2543,.0539,.088,.0973,.1406,.1216,.2009,.5958,1.4791,1.6947,2.2102,3.2827,2.3154,2.3815,.1578,4.7516,.0895,7.1103-.2579,1.1683-.1721,1.7249-.7272,1.9603-1.8571,.0598,.0502,.1221,.0805,.1513,.1303,.6882,1.1731,1.7326,1.6961,3.0667,1.6342,2.0842-.0967,4.174-.1517,6.2483-.3571,1.5306-.1516,2.4291-1.2003,2.9414-2.5974,.0297-.081,.0517-.1649,.0772-.2475,.0208-.0673,.0414-.1346,.0798-.2599,.0911,.1166,.1602,.1955,.2189,.2815,.7944,1.1636,2.2207,1.7118,3.5937,1.4192,1.1999-.2557,2.3729-.5721,3.4916-1.0943,1.2078-.5637,1.7581-1.5577,1.9764-2.8016,.027-.1541,.0478-.3093,.0699-.4541,.6635-.0879,1.3046-.1477,1.9356-.2625,.8376-.1524,1.5667-.5389,2.2227-1.0884,2.3272-1.9494,4.8083-3.6637,7.5901-4.9144,1.3053-.5868,2.7108-.7669,4.0987-.9918,1.1189-.1813,2.2541-.2928,3.3864-.3521,1.3754-.072,2.1567,.2578,2.483,2.2377,.2975,1.8053-.1709,3.5194-.7625,5.198-.9794,2.7792-2.3553,5.3741-3.7997,7.931-.7783,1.3777-1.5875,2.7414-2.454,4.0649-1.0348,1.5807-2.4819,2.7937-3.8389,4.0833-.8864,.8424-1.8193,1.6458-2.4504,2.7189-.6058,1.0302-.9336,2.1349-.8476,3.3374,.0188,.2634-.0587,.3926-.3028,.4794-1.5439,.5492-3.0786,1.1245-4.6277,1.6582-.8963,.3089-1.7697,.6251-2.2181,1.3739-.5244-.11-.99-.3017-1.4488-.2866-1.4526,.0479-2.9033,.1635-4.3533,.272-.9471,.0708-1.7763,.3738-2.235,1.3442-.3131-.5279-.8118-.6592-1.317-.6773-1.9676-.0705-3.919,.0215-5.7624,.8248-.3141,.1369-.6073,.3217-.7962,.4232-.5424-.2187-.9962-.4886-1.4836-.5816-1.4111-.2692-2.8308-.5117-4.2575-.673-.6463-.0731-1.3168,.0795-1.9772,.1072-.1246,.0052-.318-.0607-.3699-.1545-.3005-.5433-.7528-.9347-1.2983-1.1635-.872-.3657-1.7739-.6631-2.6736-.9575-.2299-.0752-.3463-.1493-.4193-.3976-.2826-.9607-.9192-1.6508-1.7864-2.1222-.205-.1114-.4652-.1596-.7018-.1653-.3446-.0083-.5479-.1652-.6371-.4725-.1041-.3588-.1877-.7241-.2679-1.0893-.2056-.9372-.6893-1.6618-1.5509-2.1259-.1118-.0602-.1805-.245-.2203-.3859-.1425-.5049-.1922-1.0494-.4109-1.5161-.2951-.6298-.8452-.996-1.5678-1.0723-.5372-.0567-.6813-.2243-.7429-.7717-.0209-.1859-.0463-.3714-.0616-.5577-.0601-.734-.4027-1.3153-.9736-1.7619-.7053-.5517-1.2453-1.1833-1.5256-2.0803-.3021-.967-1.4028-1.5491-2.4208-1.2553-1.4442,.4168-2.6307,.0195-3.7394-.863-.045-.0358-.0933-.0676-.1409-.1001-1.2316-.8412-2.0741-.8297-3.1884,.1625-.4642,.4134-.8143,.9596-1.186,1.4676-.0648,.0886-.0361,.3431,.0458,.4276,3.8474,3.9695,7.4152,8.2204,11.7362,11.7146,1.9045,1.54,4.0253,2.7238,6.2625,3.7017,3.7051,1.6195,7.5255,2.9027,11.5267,3.5179,2.7278,.4194,5.4858,.6552,8.2359,.9142,2.464,.2321,4.9225,.0832,7.3597-.3458,3.7778-.665,7.4368-1.6866,10.7542-3.6912,1.5088-.9117,2.899-1.981,4.0889-3.2872,.4105-.4506,.7462-.9693,1.116-1.4569l-.0905-.0805Z"/></g><path class="g" d="M157.4974,197.5441c-.0294,.6174-.0724,1.5347-.1219,2.6455-.3558,7.9826-.3831,8.2128-.4448,11.5068-.0833,4.4498-.6517,8.8324-2.0263,13.096-1.0384,3.2208-2.8724,5.8735-5.383,8.1058-3.2951,2.9299-6.8869,5.3938-10.9738,7.094-2.4976,1.039-5.1235,1.6002-7.7803,2.0245-3.4923,.5577-7.0112,.7603-10.5436,.6244-3.5632-.1372-7.0703-.6447-10.4993-1.6679-3.609-1.0769-6.8294-2.9019-9.9071-5.0162-5.2655-3.6174-9.5295-8.2114-13.1998-13.4084-2.5677-3.6358-4.728-7.4996-6.7392-11.4571-1.5918-3.1323-3.782-5.9271-5.5772-8.9464-1.3917-2.3406-2.6172-4.8746-3.0453-7.6722-.1485-.9702-.1965-1.9612-.2142-2.9441-.0149-.8277,.3401-1.5692,.9591-2.1005,.9265-.7952,1.8649-1.5994,2.8947-2.2466,2.4385-1.5326,4.8823-3.071,7.42-4.4274,2.6517-1.4173,5.5735-2.0758,8.5666-2.2152,2.8176-.1312,5.644-.1069,8.4663-.0964,2.1056,.0079,4.2206-.0036,6.3139,.1866,2.4941,.2266,4.9718,.6442,7.4519,1.0112,.8987,.133,1.7825,.3648,2.676,.5361,.1518,.0291,.3245,.0026,.4777-.0365,4.0401-1.0318,8.1425-1.2165,12.2789-.8854,5.1639,.4133,10.0225,1.8594,14.5453,4.3926,4.4556,2.4956,4.3615,2.8491,7.7412,4.4072,.3904,.18,2.0797,.6348,3.6188,1.8224,.5562,.4292,1.3044,.8792,1.8358,1.7425,.4255,.6912,.7241,1.4526,1.0079,2.4225,.1771,.6051,.207,1.136,.2016,1.5023Z"/></g></svg>