<?xml version="1.0" encoding="UTF-8"?>
<svg id="Text" xmlns="http://www.w3.org/2000/svg" width="61.41mm" height="128.54mm" viewBox="0 0 174.09 364.35">
  <defs>
    <style>
      .cls-1 {
        stroke: #231f20;
        stroke-miterlimit: 10;
      }
    </style>
  </defs>
  <g>
    <path d="M134.53,272.92h8.52v1.44h-3.47v5.14h-1.58v-5.14h-3.47v-1.44Z"/>
    <path d="M154.59,276.06c0,.33-.06,.63-.19,.92-.12,.28-.29,.53-.5,.75-.21,.22-.46,.39-.75,.51s-.6,.19-.92,.19h-5.95v1.07h-1.44v-6.58h7.39c.33-.01,.64,.05,.92,.17s.54,.29,.75,.51c.21,.22,.38,.47,.5,.76,.12,.29,.19,.6,.19,.92v.78Zm-2.36,.91c.26,0,.47-.09,.65-.26,.18-.18,.27-.39,.27-.65v-.78c0-.26-.09-.47-.27-.65s-.4-.27-.65-.27h-5.95v2.62h5.95Z"/>
  </g>
  <g>
    <path d="M28.95,278.05v1.44h-7.39c-.33,0-.64-.06-.92-.19s-.54-.29-.75-.5-.38-.46-.5-.75-.19-.6-.19-.92v-1.85c0-.33,.06-.64,.19-.92,.12-.29,.29-.54,.5-.76,.21-.22,.46-.39,.75-.51s.6-.19,.92-.19h7.39v1.45h-7.39c-.26,0-.47,.09-.65,.27-.18,.18-.27,.4-.27,.65v1.85c0,.26,.09,.47,.27,.65s.4,.27,.65,.27h7.39Z"/>
    <path d="M32.27,272.92l2.92,5.2c.1,.16,.24,.24,.42,.25s.32-.08,.42-.25l2.92-5.2h1.63l-3.31,5.89c-.18,.33-.43,.57-.73,.73-.3,.16-.61,.24-.94,.24s-.64-.08-.94-.24c-.3-.16-.54-.4-.71-.73l-3.31-5.89h1.63Z"/>
  </g>
  <g>
    <path d="M107.67,276.21c.26,.32,.41,.67,.45,1.06,.04,.38-.02,.74-.17,1.07-.15,.33-.38,.6-.7,.83s-.68,.34-1.12,.34h-7.87v-6.58h7.87c.43,0,.8,.11,1.12,.34,.31,.22,.54,.5,.7,.83,.15,.33,.21,.68,.17,1.07-.04,.38-.19,.74-.45,1.06Zm-7.97-.72h6.43c.18,0,.32-.06,.41-.17,.09-.12,.14-.25,.14-.39s-.05-.27-.14-.39c-.09-.12-.23-.17-.41-.17h-6.43v1.13Zm0,2.57h6.43c.18,0,.32-.06,.41-.17,.09-.12,.14-.25,.14-.39s-.05-.27-.14-.39c-.09-.12-.23-.17-.41-.17h-6.43v1.13Z"/>
    <path d="M119.56,276.06c0,.33-.06,.63-.19,.92-.12,.28-.29,.53-.5,.75-.21,.22-.46,.39-.75,.51s-.6,.19-.92,.19h-5.95v1.07h-1.44v-6.58h7.39c.33-.01,.64,.05,.92,.17s.54,.29,.75,.51c.21,.22,.38,.47,.5,.76,.12,.29,.19,.6,.19,.92v.78Zm-2.36,.91c.26,0,.47-.09,.65-.26,.18-.18,.27-.39,.27-.65v-.78c0-.26-.09-.47-.27-.65s-.4-.27-.65-.27h-5.95v2.62h5.95Z"/>
  </g>
  <g>
    <path d="M24.15,235.48h-1.44v-6.58h1.44v6.58Z"/>
    <path d="M34.95,228.9v5.77c0,.2-.05,.37-.16,.52-.1,.15-.23,.26-.39,.34-.16,.08-.33,.11-.51,.1-.18-.01-.35-.08-.5-.21l-5.87-4.74v4.8h-1.43v-5.77c0-.2,.05-.38,.16-.53s.23-.26,.39-.34c.16-.07,.32-.1,.5-.09,.18,.01,.35,.08,.5,.21l5.88,4.73v-4.79h1.43Z"/>
  </g>
  <g>
    <path d="M16.33,167.94v1.44h-7.39c-.33,0-.64-.06-.92-.19s-.54-.29-.75-.5-.38-.46-.5-.75-.19-.6-.19-.92v-1.85c0-.33,.06-.64,.19-.92,.12-.29,.29-.54,.5-.76,.21-.22,.46-.39,.75-.51s.6-.19,.92-.19h7.39v1.45h-7.39c-.26,0-.47,.09-.65,.27-.18,.18-.27,.4-.27,.65v1.85c0,.26,.09,.47,.27,.65s.4,.27,.65,.27h7.39Z"/>
    <path d="M19.65,162.8l2.92,5.2c.1,.16,.24,.24,.42,.25s.32-.08,.42-.25l2.92-5.2h1.63l-3.31,5.89c-.18,.33-.43,.57-.73,.73-.3,.16-.61,.24-.94,.24s-.64-.08-.94-.24c-.3-.16-.54-.4-.71-.73l-3.31-5.89h1.63Z"/>
    <path d="M39.04,162.76h4.58c.33,0,.64,.06,.92,.19s.54,.29,.75,.51,.38,.47,.5,.76,.19,.6,.19,.92v4.24h-1.44v-1.58h-6.43v1.58h-1.44v-4.24c0-.33,.06-.64,.19-.92s.29-.54,.5-.76,.46-.39,.75-.51,.6-.19,.92-.19Zm-.92,3.58h6.43v-1.2c0-.26-.09-.47-.27-.65-.18-.18-.4-.27-.65-.27h-4.58c-.26,0-.47,.09-.65,.27-.18,.18-.27,.4-.27,.65v1.2Z"/>
    <path d="M47.9,162.8h8.52v1.44h-3.47v5.14h-1.58v-5.14h-3.47v-1.44Z"/>
    <path d="M58.19,162.8h8.52v1.44h-3.47v5.14h-1.58v-5.14h-3.47v-1.44Z"/>
  </g>
  <g>
    <path d="M6.55,106.96h-1.44v-6.58h1.44v6.58Z"/>
    <path d="M17.35,100.39v5.77c0,.2-.05,.37-.16,.52-.1,.15-.23,.26-.39,.34-.16,.08-.33,.11-.51,.1-.18-.01-.35-.08-.5-.21l-5.87-4.74v4.8h-1.43v-5.77c0-.2,.05-.38,.16-.53s.23-.26,.39-.34c.16-.07,.32-.1,.5-.09,.18,.01,.35,.08,.5,.21l5.88,4.73v-4.79h1.43Z"/>
    <path d="M28.87,100.35h4.58c.33,0,.64,.06,.92,.19s.54,.29,.75,.51,.38,.47,.5,.76,.19,.6,.19,.92v4.24h-1.44v-1.58h-6.43v1.58h-1.44v-4.24c0-.33,.06-.64,.19-.92s.29-.54,.5-.76,.46-.39,.75-.51,.6-.19,.92-.19Zm-.92,3.58h6.43v-1.2c0-.26-.09-.47-.27-.65-.18-.18-.4-.27-.65-.27h-4.58c-.26,0-.47,.09-.65,.27-.18,.18-.27,.4-.27,.65v1.2Z"/>
    <path d="M37.73,100.39h8.52v1.44h-3.47v5.14h-1.58v-5.14h-3.47v-1.44Z"/>
    <path d="M48.02,100.39h8.52v1.44h-3.47v5.14h-1.58v-5.14h-3.47v-1.44Z"/>
  </g>
  <path d="M48.42,76.13h-1.92v-5.62c0-.44,.08-.85,.25-1.23,.17-.38,.39-.72,.67-1,.28-.28,.62-.51,1-.67,.38-.17,.79-.25,1.23-.25h7.38v1.92h-7.38c-.34,0-.63,.12-.87,.36s-.36,.53-.36,.87v1.23h8.61v1.92h-8.61v2.46Z"/>
  <g>
    <path d="M60.72,128.09h10.17l-4.55-5.66c-.34-.43-.53-.89-.56-1.38s.05-.95,.25-1.37c.21-.42,.51-.77,.92-1.06,.41-.28,.89-.43,1.44-.43h10.14v2.74h-9.89l4.53,5.66c.34,.43,.53,.89,.56,1.38s-.04,.95-.24,1.37c-.2,.42-.5,.77-.91,1.06s-.89,.43-1.44,.43h-10.42v-2.74Z"/>
    <path d="M89.47,130.83h-7.22c-.63,0-1.22-.12-1.77-.36-.55-.24-1.03-.56-1.44-.97s-.73-.89-.97-1.44c-.24-.55-.36-1.14-.36-1.77s.12-1.22,.36-1.77c.24-.55,.56-1.03,.97-1.44s.89-.73,1.44-.97c.55-.24,1.14-.36,1.77-.36h7.11c.63,0,1.22,.12,1.77,.36,.55,.24,1.03,.56,1.44,.97,.41,.41,.73,.89,.97,1.44,.24,.55,.36,1.14,.36,1.77v4.53h-2.76v-4.53c0-.49-.17-.91-.52-1.25-.35-.34-.76-.52-1.25-.52h-7.11c-.49,0-.91,.17-1.25,.52-.34,.35-.52,.76-.52,1.25s.17,.91,.52,1.25c.35,.34,.76,.52,1.25,.52h7.22v2.76Z"/>
    <path d="M98.3,118.23l5.59,9.96c.18,.31,.45,.46,.81,.47,.35,0,.62-.15,.81-.47l5.59-9.96h3.13l-6.35,11.29c-.35,.63-.82,1.1-1.39,1.4-.58,.31-1.17,.46-1.79,.46s-1.22-.15-1.79-.46c-.57-.31-1.03-.77-1.37-1.4l-6.35-11.29h3.13Z"/>
    <path d="M124.89,130.83h-7.22c-.63,0-1.22-.12-1.77-.36-.55-.24-1.03-.56-1.44-.97s-.73-.89-.97-1.44c-.24-.55-.36-1.14-.36-1.77s.12-1.22,.36-1.77c.24-.55,.56-1.03,.97-1.44s.89-.73,1.44-.97c.55-.24,1.14-.36,1.77-.36h7.11c.63,0,1.22,.12,1.77,.36,.55,.24,1.03,.56,1.44,.97,.41,.41,.73,.89,.97,1.44,.24,.55,.36,1.14,.36,1.77v4.53h-2.76v-4.53c0-.49-.17-.91-.52-1.25-.35-.34-.76-.52-1.25-.52h-7.11c-.49,0-.91,.17-1.25,.52-.34,.35-.52,.76-.52,1.25s.17,.91,.52,1.25c.35,.34,.76,.52,1.25,.52h7.22v2.76Z"/>
    <path d="M142.92,131.91c.31,0,.56-.1,.77-.31s.31-.46,.31-.77v-4.53c0-.49-.17-.91-.52-1.25-.35-.34-.76-.52-1.25-.52h-7.11c-.49,0-.91,.17-1.25,.52-.34,.35-.52,.76-.52,1.25s.17,.91,.52,1.25c.35,.34,.76,.52,1.25,.52h7.22v2.76h-7.22c-.63,0-1.22-.12-1.77-.36-.55-.24-1.03-.56-1.44-.97s-.73-.89-.97-1.44c-.24-.55-.36-1.14-.36-1.77s.12-1.22,.36-1.77c.24-.55,.56-1.03,.97-1.44s.89-.73,1.44-.97c.55-.24,1.14-.36,1.77-.36h7.11c.63,0,1.22,.12,1.77,.36,.55,.24,1.03,.56,1.44,.97,.41,.41,.73,.89,.97,1.44,.24,.55,.36,1.14,.36,1.77v4.53c0,.54-.1,1.04-.3,1.51-.2,.47-.48,.87-.83,1.22-.35,.34-.76,.62-1.23,.82-.47,.2-.96,.3-1.48,.3v-2.76Z"/>
    <path d="M164.03,128.07v2.76h-10.67c-.63,0-1.22-.12-1.77-.36-.55-.24-1.03-.56-1.44-.97s-.73-.89-.97-1.44c-.24-.55-.36-1.14-.36-1.77s.12-1.22,.36-1.77c.24-.55,.56-1.03,.97-1.44s.89-.73,1.44-.97c.55-.24,1.14-.36,1.77-.36h8.99c.38,0,.72,.1,1.01,.3,.29,.2,.51,.45,.64,.75,.14,.3,.2,.62,.17,.98-.02,.35-.16,.67-.4,.97l-2.65,3.31h2.9Zm-10.67-3.61c-.25,0-.48,.05-.69,.15-.21,.1-.4,.23-.56,.4-.16,.17-.29,.36-.38,.59-.09,.22-.14,.46-.14,.7,0,.49,.17,.91,.52,1.25,.35,.34,.76,.52,1.25,.52h4.37l2.88-3.61h-7.25Z"/>
    <path d="M89.42,159.83h-2.16v-6.32c0-.49,.09-.95,.28-1.39s.44-.81,.76-1.12,.69-.57,1.12-.76c.43-.19,.89-.28,1.39-.28h8.3v2.16h-8.3c-.38,0-.71,.14-.98,.41s-.4,.6-.4,.98v1.39h9.68v2.16h-9.68v2.77Z"/>
    <path d="M102.38,151.82h-2.16v-1.26h2.16v1.26Zm-2.16,.92h2.16v7.09h-2.16v-7.09Z"/>
    <path d="M106.3,159.83h-2.16v-9.27h2.16v9.27Z"/>
    <path d="M109.85,152.74h5.74v2.16h-5.74v1.39c0,.38,.13,.71,.4,.98s.6,.4,.98,.4h5.47v2.16h-5.47c-.49,0-.95-.09-1.39-.28-.43-.19-.81-.44-1.12-.76-.32-.32-.57-.69-.76-1.12-.19-.43-.28-.89-.28-1.39v-5.72h2.16v2.18Z"/>
    <path d="M129.5,157.67v2.16h-8.35c-.49,0-.95-.09-1.39-.28-.43-.19-.81-.44-1.12-.76-.32-.32-.57-.69-.76-1.12-.19-.43-.28-.89-.28-1.39s.09-.95,.28-1.39c.19-.43,.44-.81,.76-1.12s.69-.57,1.12-.76c.43-.19,.89-.28,1.39-.28h7.04c.3,0,.56,.08,.79,.23s.4,.35,.5,.58,.15,.49,.14,.77-.12,.53-.31,.76l-2.07,2.59h2.27Zm-8.35-2.83c-.19,0-.37,.04-.54,.12-.17,.08-.31,.18-.44,.31-.13,.13-.23,.29-.3,.46-.07,.17-.11,.36-.11,.55,0,.38,.13,.71,.4,.98s.6,.4,.98,.4h3.42l2.25-2.83h-5.67Z"/>
    <path d="M130.71,159.83v-3.55c0-.49,.09-.95,.28-1.39,.19-.43,.44-.81,.76-1.12s.69-.57,1.12-.76c.43-.19,.89-.28,1.39-.28h3.87v2.16h-3.87c-.38,0-.71,.14-.98,.41s-.4,.6-.4,.98v3.55h-2.16Z"/>
  </g>
  <line class="cls-1" x1="78.7" y1="139.59" x2="145.13" y2="139.59"/>
  <path d="M124.57,74.98c.34,0,.66-.06,.96-.19,.3-.13,.56-.3,.78-.53,.22-.22,.4-.49,.53-.78,.13-.3,.19-.62,.19-.96s-.06-.66-.19-.96c-.13-.3-.3-.56-.53-.78-.22-.22-.49-.4-.78-.53-.3-.13-.62-.19-.96-.19h-6.54c-.34,0-.66,.06-.96,.19-.3,.13-.56,.3-.78,.53-.22,.22-.4,.49-.53,.78-.13,.3-.19,.62-.19,.96s.06,.66,.19,.96c.13,.3,.3,.56,.53,.78,.22,.22,.49,.4,.78,.53,.3,.13,.62,.19,.96,.19h2.26c-.53,.54-.9,1.18-1.1,1.92h-1.15c-.61,0-1.18-.11-1.7-.34-.53-.23-.99-.54-1.39-.94s-.71-.86-.94-1.39c-.23-.53-.34-1.1-.34-1.7s.11-1.18,.34-1.71c.23-.53,.54-1,.94-1.39s.86-.71,1.39-.94c.53-.23,1.1-.34,1.7-.34h6.54c.61,0,1.18,.11,1.71,.34,.53,.23,1,.54,1.4,.94s.71,.86,.94,1.39c.23,.53,.34,1.1,.34,1.71s-.11,1.18-.34,1.7c-.23,.53-.54,.99-.94,1.39s-.87,.71-1.4,.94c-.53,.23-1.1,.34-1.71,.34h-.98c-.34,0-.63,.12-.87,.36s-.36,.53-.36,.87h-1.92c0-.44,.08-.85,.25-1.23s.39-.72,.67-1c.28-.28,.62-.51,1-.67,.38-.17,.79-.25,1.23-.25h.98Z"/>
  <g>
    <path d="M64.04,275.52h6.72v-2.6h1.45v6.58h-1.45v-2.53h-6.72v2.53h-1.44v-6.58h1.44v2.6Z"/>
    <path d="M83.77,276.06c0,.33-.06,.63-.19,.92-.12,.28-.29,.53-.5,.75-.21,.22-.46,.39-.75,.51s-.6,.19-.92,.19h-5.95v1.07h-1.44v-6.58h7.39c.33-.01,.64,.05,.92,.17s.54,.29,.75,.51c.21,.22,.38,.47,.5,.76,.12,.29,.19,.6,.19,.92v.78Zm-2.36,.91c.26,0,.47-.09,.65-.26,.18-.18,.27-.39,.27-.65v-.78c0-.26-.09-.47-.27-.65s-.4-.27-.65-.27h-5.95v2.62h5.95Z"/>
  </g>
</svg>