M48
; DRILL file {KiCad (6.0.5-0)} date 2022 May 18, Wednesday 15:07:31
; FORMAT={-:-/ absolute / metric / decimal}
; #@! TF.CreationDate,2022-05-18T15:07:31+02:00
; #@! TF.GenerationSoftware,Kicad,Pcbnew,(6.0.5-0)
; #@! TF.FileFunction,MixedPlating,1,2
FMAT,2
METRIC
; #@! TA.AperFunction,Plated,PTH,ComponentDrill
T1C0.800
; #@! TA.AperFunction,Plated,PTH,ViaDrill
T2C1.000
; #@! TA.AperFunction,Plated,PTH,ComponentDrill
T3C1.000
; #@! TA.AperFunction,Plated,PTH,ComponentDrill
T4C1.220
; #@! TA.AperFunction,Plated,PTH,ComponentDrill
T5C1.420
; #@! TA.AperFunction,Plated,PTH,ComponentDrill
T6C1.430
; #@! TA.AperFunction,Plated,PTH,ComponentDrill
T7C1.800
; #@! TA.AperFunction,NonPlated,NPTH,ComponentDrill
T8C3.200
%
G90
G05
T1
X52.07Y-74.93
X52.07Y-114.554
X52.07Y-118.11
X54.65Y-95.25
X59.65Y-95.25
X62.23Y-74.93
X62.23Y-114.554
X62.23Y-118.11
X63.5Y-53.38
X63.5Y-55.88
X66.04Y-131.445
X66.04Y-134.62
X66.675Y-64.135
X66.675Y-67.945
X66.675Y-71.755
X66.675Y-75.565
X66.675Y-79.375
X66.675Y-83.185
X66.675Y-86.995
X66.675Y-90.805
X66.675Y-94.615
X66.675Y-98.425
X66.675Y-112.395
X66.675Y-116.205
X71.12Y-53.34
X71.12Y-55.84
X71.16Y-127.0
X71.795Y-101.6
X71.795Y-105.41
X71.795Y-109.22
X76.16Y-127.0
X76.2Y-131.445
X76.2Y-134.62
X76.795Y-101.6
X76.795Y-105.41
X76.795Y-109.22
X76.835Y-64.135
X76.835Y-67.945
X76.835Y-71.755
X76.835Y-75.565
X76.835Y-79.375
X76.835Y-83.185
X76.835Y-86.995
X76.835Y-90.805
X76.835Y-94.615
X76.835Y-98.425
X76.835Y-112.395
X76.835Y-116.205
X77.47Y-53.38
X77.47Y-58.38
X80.01Y-75.565
X80.01Y-131.445
X80.01Y-134.62
X81.27Y-80.005
X81.27Y-82.545
X81.27Y-85.085
X81.27Y-87.625
X81.27Y-90.165
X81.27Y-92.705
X81.27Y-95.245
X81.27Y-112.39
X81.27Y-114.93
X81.27Y-117.47
X81.27Y-120.01
X81.27Y-122.55
X81.27Y-125.09
X81.27Y-127.63
X81.28Y-53.38
X81.28Y-58.38
X81.29Y-64.125
X81.29Y-66.665
X81.29Y-69.205
X81.29Y-71.745
X81.29Y-99.05
X81.29Y-101.59
X81.29Y-104.13
X81.29Y-106.67
X88.89Y-80.005
X88.89Y-82.545
X88.89Y-85.085
X88.89Y-87.625
X88.89Y-90.165
X88.89Y-92.705
X88.89Y-95.245
X88.89Y-112.39
X88.89Y-114.93
X88.89Y-117.47
X88.89Y-120.01
X88.89Y-122.55
X88.89Y-125.09
X88.89Y-127.63
X88.91Y-64.125
X88.91Y-66.665
X88.91Y-69.205
X88.91Y-71.745
X88.91Y-99.05
X88.91Y-101.59
X88.91Y-104.13
X88.91Y-106.67
X90.17Y-75.565
X90.17Y-131.445
X90.17Y-134.62
X92.71Y-94.615
X92.71Y-101.346
X92.71Y-104.775
X92.75Y-86.995
X92.75Y-90.805
X92.75Y-108.204
X92.75Y-111.76
X92.75Y-116.84
X92.75Y-127.0
X93.004Y-98.044
X93.98Y-131.445
X93.98Y-134.62
X97.75Y-86.995
X97.75Y-90.805
X97.75Y-108.204
X97.75Y-111.76
X97.75Y-116.84
X97.75Y-127.0
X98.004Y-98.044
X102.87Y-77.47
X102.87Y-87.63
X102.87Y-94.615
X102.87Y-101.346
X102.87Y-104.775
X104.14Y-131.445
X104.14Y-134.62
T2
X66.675Y-103.505
X66.675Y-106.045
X69.215Y-103.505
X69.215Y-106.045
X69.85Y-120.015
X69.85Y-122.555
X73.66Y-120.015
X73.66Y-122.555
X97.79Y-77.47
X97.79Y-80.01
X97.79Y-82.55
X102.87Y-113.03
X102.87Y-116.205
X102.87Y-119.38
X102.87Y-122.555
T3
X54.65Y-71.765
X54.65Y-89.545
X54.65Y-111.135
X57.15Y-71.765
X57.15Y-89.545
X57.15Y-111.135
X59.65Y-71.765
X59.65Y-89.545
X59.65Y-111.135
X86.36Y-54.61
X86.36Y-57.15
X88.9Y-54.61
X88.9Y-57.15
X91.44Y-54.61
X91.44Y-57.15
X93.98Y-54.61
X93.98Y-57.15
X95.29Y-71.765
X96.52Y-54.61
X96.52Y-57.15
X97.79Y-71.765
X100.29Y-71.765
T4
X57.15Y-134.05
X57.15Y-150.56
X72.39Y-150.56
X85.09Y-150.56
X97.79Y-150.56
T5
X57.15Y-130.95
X57.15Y-147.46
X72.39Y-147.46
X85.09Y-147.46
X97.79Y-147.46
T6
X57.15Y-122.65
X57.15Y-139.16
X72.39Y-139.16
X85.09Y-139.16
X97.79Y-139.16
T7
X52.35Y-64.265
X52.35Y-82.045
X52.35Y-103.635
X61.95Y-64.265
X61.95Y-82.045
X61.95Y-103.635
X92.99Y-64.265
X102.59Y-64.265
T8
X54.75Y-52.75
X102.0Y-52.75
T0
M30
